<svg xmlns="http://www.w3.org/2000/svg" viewBox="0 0 610.183 369.88" width="960" height="581.933"><defs><style>.d,.l{fill:none;stroke-linejoin:round}.d{stroke-width:.6667px;stroke:#fff;stroke-linecap:square}.e{isolation:isolate}.f{fill:#fff}.l{stroke:#fcc217;stroke-opacity:.702;stroke-width:1.41732px}.m{fill:#fcc217}</style></defs><path style="fill:#232529" d="M0 0h610.183v369.88H0z"/><path d="M45.287 334.736h534.351V33.087H45.287Z" style="fill:#282c34"/><path d="M45.287 334.736V33.087m53.435 301.649V33.087m53.435 301.649V33.087m53.435 301.649V33.087m53.435 301.649V33.087m53.435 301.649V33.087m53.435 301.649V33.087m53.435 301.649V33.087m53.435 301.649V33.087m53.435 301.649V119.272m53.435 215.464V33.087m0 301.649H45.286m534.351-43.093H45.286m534.351-43.093H45.286m534.351-43.093H45.286m534.351-43.093H45.286m534.351-43.093H45.286m427.481-43.093H45.286m534.351-43.093H45.286" style="stroke:#8f8f8f;stroke-width:.6667px;fill:none;stroke-linejoin:round"/><path class="d" d="M45.287 334.736h534.351m-534.351 0v-5.344m53.435 5.344v-5.344m53.435 5.344v-5.344m53.435 5.344v-5.344m53.435 5.344v-5.344m53.435 5.344v-5.344m53.435 5.344v-5.344m53.435 5.344v-5.344m53.435 5.344v-5.344m53.435 5.344v-5.344m53.435 5.344v-5.344"/><g class="e"><path class="f" d="M44.195 340.18c0-1.231.508-1.757 1.149-1.757.628 0 1.144.517 1.144 1.757 0 1.235-.508 1.767-1.14 1.767-.637 0-1.155-.517-1.155-1.767Zm1.973 0c0-.929-.273-1.48-.829-1.48-.545 0-.824.527-.824 1.48 0 .924.264 1.489.824 1.489.551 0 .829-.541.829-1.489Z"/></g><g class="e"><path class="f" d="M97.319 341.64v.277h-2.151v-.119c0-.743.623-1.097 1.135-1.467.349-.253.647-.512.647-.948a.64.64 0 0 0-.704-.68.659.659 0 0 0-.723.741h-.307a.967.967 0 0 1 1.044-1.025.936.936 0 0 1 1.011.948c0 .545-.369.871-.771 1.173-.469.344-.981.651-1.005 1.116a12.485 12.485 0 0 1 .641-.02Zm.608-1.46c0-1.231.508-1.757 1.149-1.757.627 0 1.144.517 1.144 1.757 0 1.235-.508 1.767-1.14 1.767-.637 0-1.155-.517-1.155-1.767Zm1.973 0c0-.929-.273-1.48-.828-1.48-.545 0-.824.527-.824 1.48 0 .924.264 1.489.824 1.489.551 0 .828-.541.828-1.489Zm1.009 0c0-1.231.508-1.757 1.149-1.757.628 0 1.144.517 1.144 1.757 0 1.235-.508 1.767-1.14 1.767-.637 0-1.155-.517-1.155-1.767Zm1.973 0c0-.929-.273-1.48-.828-1.48-.545 0-.824.527-.824 1.48 0 .924.263 1.489.824 1.489.551 0 .828-.541.828-1.489Z"/></g><g class="e"><path class="f" d="M151.008 340.875v.268h-.441v.776h-.301v-.776h-1.733v-.292l1.537-2.385h.499v2.409Zm-.743 0v-2.213l-1.408 2.213Zm1.316-.695c0-1.231.508-1.757 1.149-1.757.627 0 1.144.517 1.144 1.757 0 1.235-.508 1.767-1.14 1.767-.637 0-1.155-.517-1.155-1.767Zm1.973 0c0-.929-.273-1.48-.829-1.48-.545 0-.824.527-.824 1.48 0 .924.264 1.489.824 1.489.551 0 .829-.541.829-1.489Zm1.009 0c0-1.231.508-1.757 1.149-1.757.628 0 1.144.517 1.144 1.757 0 1.235-.508 1.767-1.14 1.767-.637 0-1.155-.517-1.155-1.767Zm1.973 0c0-.929-.273-1.48-.828-1.48-.545 0-.824.527-.824 1.48 0 .924.263 1.489.824 1.489.551 0 .828-.541.828-1.489Z"/></g><g class="e"><path class="f" d="M201.861 340.195c0-1 .273-1.772 1.179-1.772a.92.92 0 0 1 1.015.857h-.321a.632.632 0 0 0-.695-.579c-.68 0-.887.627-.843 1.547h.019a.883.883 0 0 1 .857-.541 1.028 1.028 0 0 1 1.029 1.125 1.055 1.055 0 0 1-1.096 1.136c-.885 0-1.144-.796-1.144-1.772Zm1.907.628a.739.739 0 0 0-.737-.843.779.779 0 0 0-.761.861.764.764 0 0 0 .761.848c.451 0 .737-.34.737-.867Zm.981-.641c0-1.231.508-1.757 1.149-1.757.627 0 1.144.517 1.144 1.757 0 1.235-.508 1.767-1.14 1.767-.637 0-1.153-.517-1.153-1.767Zm1.973 0c0-.929-.273-1.48-.828-1.48-.545 0-.824.527-.824 1.48 0 .924.263 1.489.824 1.489.551 0 .828-.541.828-1.489Zm1.009 0c0-1.231.508-1.757 1.149-1.757.627 0 1.144.517 1.144 1.757 0 1.235-.508 1.767-1.14 1.767-.637 0-1.155-.517-1.155-1.767Zm1.973 0c0-.929-.273-1.48-.828-1.48-.545 0-.824.527-.824 1.48 0 .924.263 1.489.824 1.489.551 0 .828-.541.828-1.489Z"/></g><g class="e"><path class="f" d="M255.819 340.213v-.037a.903.903 0 0 1-.512-.824c0-.532.44-.924 1.087-.924s1.092.383 1.092.924a.904.904 0 0 1-.508.824v.037a.911.911 0 0 1 .508.829c0 .541-.441.925-1.092.925-.652 0-1.087-.389-1.087-.925a.904.904 0 0 1 .512-.829Zm.575-.144a.688.688 0 1 0 0-1.364.677.677 0 0 0-.767.68.685.685 0 0 0 .767.685Zm0 1.619a.687.687 0 1 0-.767-.684.68.68 0 0 0 .767.684Zm1.743-1.508c0-1.231.508-1.757 1.149-1.757.628 0 1.144.517 1.144 1.757 0 1.235-.508 1.767-1.14 1.767-.637 0-1.155-.517-1.155-1.767Zm1.973 0c0-.929-.273-1.48-.829-1.48-.545 0-.824.527-.824 1.48 0 .924.264 1.489.824 1.489.551 0 .829-.541.829-1.489Zm1.009 0c0-1.231.508-1.757 1.149-1.757.627 0 1.144.517 1.144 1.757 0 1.235-.508 1.767-1.14 1.767-.637 0-1.155-.517-1.155-1.767Zm1.973 0c0-.929-.273-1.48-.828-1.48-.545 0-.824.527-.824 1.48 0 .924.264 1.489.824 1.489.551 0 .828-.541.828-1.489Z"/></g><g class="e"><path class="f" d="M307.349 339.06h.096c.469 0 .771-.215.828-.593h.277v3.452h-.296v-2.629h-.905Zm2.264 1.121c0-1.231.508-1.757 1.149-1.757.627 0 1.144.517 1.144 1.757 0 1.235-.508 1.767-1.14 1.767-.637 0-1.155-.517-1.155-1.767Zm1.973 0c0-.929-.273-1.48-.828-1.48-.545 0-.824.527-.824 1.48 0 .924.264 1.489.824 1.489.551 0 .828-.541.828-1.489Zm1.009 0c0-1.231.508-1.757 1.149-1.757.627 0 1.144.517 1.144 1.757 0 1.235-.508 1.767-1.14 1.767-.637 0-1.155-.517-1.155-1.767Zm1.973 0c0-.929-.273-1.48-.829-1.48-.545 0-.824.527-.824 1.48 0 .924.264 1.489.824 1.489.552 0 .829-.541.829-1.489Zm1.009 0c0-1.231.508-1.757 1.149-1.757.627 0 1.144.517 1.144 1.757 0 1.235-.508 1.767-1.14 1.767-.637 0-1.153-.517-1.153-1.767Zm1.973 0c0-.929-.273-1.48-.828-1.48-.545 0-.824.527-.824 1.48 0 .924.263 1.489.824 1.489.551 0 .828-.541.828-1.489Z"/></g><g class="e"><path class="f" d="M360.856 339.06h.096c.469 0 .771-.215.828-.593h.277v3.452h-.296v-2.629h-.905Zm4.396 2.581v.277h-2.151v-.119c0-.743.623-1.097 1.135-1.467.349-.253.647-.512.647-.948a.64.64 0 0 0-.704-.68.659.659 0 0 0-.723.741h-.307a.967.967 0 0 1 1.044-1.025.936.936 0 0 1 1.011.948c0 .545-.369.871-.771 1.173-.469.344-.981.651-1.005 1.116a12.485 12.485 0 0 1 .641-.02Zm.608-1.46c0-1.231.508-1.757 1.149-1.757.627 0 1.144.517 1.144 1.757 0 1.235-.508 1.767-1.14 1.767-.637 0-1.155-.517-1.155-1.767Zm1.973 0c0-.929-.273-1.48-.828-1.48-.545 0-.824.527-.824 1.48 0 .924.263 1.489.824 1.489.551 0 .828-.541.828-1.489Zm1.011 0c0-1.231.508-1.757 1.149-1.757.627 0 1.144.517 1.144 1.757 0 1.235-.508 1.767-1.14 1.767-.637 0-1.155-.517-1.155-1.767Zm1.973 0c0-.929-.273-1.48-.828-1.48-.545 0-.824.527-.824 1.48 0 .924.264 1.489.824 1.489.551 0 .828-.541.828-1.489Z"/></g><g class="e"><path class="f" d="M414.363 339.06h.096c.469 0 .771-.215.828-.593h.277v3.452h-.296v-2.629h-.905Zm4.577 1.815v.268h-.441v.776h-.301v-.776h-1.733v-.292l1.537-2.385h.499v2.409Zm-.743 0v-2.213l-1.408 2.213Zm1.316-.695c0-1.231.508-1.757 1.149-1.757.628 0 1.144.517 1.144 1.757 0 1.235-.508 1.767-1.14 1.767-.637 0-1.155-.517-1.155-1.767Zm1.973 0c0-.929-.273-1.48-.828-1.48-.545 0-.824.527-.824 1.48 0 .924.264 1.489.824 1.489.551 0 .828-.541.828-1.489Zm1.009 0c0-1.231.508-1.757 1.149-1.757.627 0 1.144.517 1.144 1.757 0 1.235-.508 1.767-1.14 1.767-.637 0-1.155-.517-1.155-1.767Zm1.973 0c0-.929-.273-1.48-.829-1.48-.545 0-.824.527-.824 1.48 0 .924.264 1.489.824 1.489.552 0 .829-.541.829-1.489Z"/></g><g class="e"><path class="f" d="M467.511 339.06h.096c.469 0 .771-.215.828-.593h.277v3.452h-.296v-2.629h-.905Zm2.284 1.135c0-1 .273-1.772 1.177-1.772a.92.92 0 0 1 1.015.857h-.321a.632.632 0 0 0-.695-.579c-.68 0-.887.627-.843 1.547h.019a.883.883 0 0 1 .857-.541 1.028 1.028 0 0 1 1.029 1.125 1.055 1.055 0 0 1-1.096 1.136c-.885 0-1.144-.796-1.144-1.772Zm1.907.628a.739.739 0 0 0-.737-.843.779.779 0 0 0-.761.861.764.764 0 0 0 .761.848c.451 0 .737-.34.737-.867Zm.981-.641c0-1.231.508-1.757 1.149-1.757.627 0 1.144.517 1.144 1.757 0 1.235-.508 1.767-1.14 1.767-.637 0-1.155-.517-1.155-1.767Zm1.973 0c0-.929-.273-1.48-.828-1.48-.547 0-.824.527-.824 1.48 0 .924.263 1.489.823 1.489.551 0 .828-.541.828-1.489Zm1.011 0c0-1.231.508-1.757 1.149-1.757.627 0 1.144.517 1.144 1.757 0 1.235-.508 1.767-1.14 1.767-.637 0-1.153-.517-1.153-1.767Zm1.973 0c0-.929-.273-1.48-.828-1.48-.545 0-.824.527-.824 1.48 0 .924.264 1.489.824 1.489.551 0 .828-.541.828-1.489Z"/></g><g class="e"><path class="f" d="M521.017 339.06h.096c.469 0 .771-.215.828-.593h.277v3.452h-.296v-2.629h-.905Zm2.733 1.153v-.037a.903.903 0 0 1-.512-.824c0-.532.441-.924 1.087-.924s1.092.383 1.092.924a.904.904 0 0 1-.508.824v.037a.911.911 0 0 1 .508.829c0 .541-.44.925-1.092.925s-1.087-.389-1.087-.925a.904.904 0 0 1 .512-.829Zm.575-.144a.688.688 0 1 0 0-1.364.677.677 0 0 0-.767.68.685.685 0 0 0 .767.685Zm0 1.619a.687.687 0 1 0-.767-.684.68.68 0 0 0 .767.684Zm1.743-1.508c0-1.231.508-1.757 1.149-1.757.627 0 1.144.517 1.144 1.757 0 1.235-.508 1.767-1.14 1.767-.637 0-1.155-.517-1.155-1.767Zm1.973 0c0-.929-.273-1.48-.829-1.48-.545 0-.823.527-.823 1.48 0 .924.264 1.489.823 1.489.552 0 .829-.541.829-1.489Zm1.009 0c0-1.231.508-1.757 1.149-1.757.627 0 1.144.517 1.144 1.757 0 1.235-.508 1.767-1.14 1.767-.637 0-1.155-.517-1.155-1.767Zm1.973 0c0-.929-.273-1.48-.829-1.48-.545 0-.824.527-.824 1.48 0 .924.264 1.489.824 1.489.551 0 .829-.541.829-1.489Z"/></g><g class="e"><path class="f" d="M576.727 341.64v.277h-2.151v-.119c0-.743.623-1.097 1.135-1.467.349-.253.647-.512.647-.948a.64.64 0 0 0-.704-.68.659.659 0 0 0-.723.741h-.307a.967.967 0 0 1 1.044-1.025.936.936 0 0 1 1.011.948c0 .545-.369.871-.771 1.173-.469.344-.981.651-1.005 1.116a12.485 12.485 0 0 1 .641-.02Zm.608-1.46c0-1.231.508-1.757 1.149-1.757.627 0 1.144.517 1.144 1.757 0 1.235-.508 1.767-1.14 1.767-.637 0-1.155-.517-1.155-1.767Zm1.973 0c0-.929-.273-1.48-.828-1.48-.545 0-.824.527-.824 1.48 0 .924.264 1.489.824 1.489.551 0 .828-.541.828-1.489Zm1.009 0c0-1.231.508-1.757 1.149-1.757.628 0 1.144.517 1.144 1.757 0 1.235-.508 1.767-1.14 1.767-.637 0-1.155-.517-1.155-1.767Zm1.973 0c0-.929-.273-1.48-.828-1.48-.545 0-.824.527-.824 1.48 0 .924.263 1.489.824 1.489.551 0 .828-.541.828-1.489Zm1.009 0c0-1.231.508-1.757 1.149-1.757.627 0 1.144.517 1.144 1.757 0 1.235-.508 1.767-1.14 1.767-.637 0-1.155-.517-1.155-1.767Zm1.973 0c0-.929-.273-1.48-.828-1.48-.545 0-.824.527-.824 1.48 0 .924.264 1.489.823 1.489.552 0 .829-.541.829-1.489Z"/></g><g class="e"><path class="f" d="M291.931 346.535a3.26 3.26 0 0 0-.244-.144 2.319 2.319 0 0 0-.304-.133 2.445 2.445 0 0 0-.363-.095 2.296 2.296 0 0 0-.421-.037 2.449 2.449 0 0 0-.996.196 2.187 2.187 0 0 0-.753.537 2.415 2.415 0 0 0-.477.804 2.912 2.912 0 0 0-.167 1 2.277 2.277 0 0 0 .121.775 1.551 1.551 0 0 0 .347.567 1.452 1.452 0 0 0 .537.348 1.943 1.943 0 0 0 .692.117 3.26 3.26 0 0 0 .441-.027 2.557 2.557 0 0 0 .368-.077 2.319 2.319 0 0 0 .319-.117q.149-.068.289-.145l-.144.648a3.035 3.035 0 0 1-.639.208 3.729 3.729 0 0 1-.764.072 2.413 2.413 0 0 1-.911-.165 1.963 1.963 0 0 1-.7-.469 2.104 2.104 0 0 1-.448-.731 2.716 2.716 0 0 1-.159-.949 3.556 3.556 0 0 1 .219-1.271 2.875 2.875 0 0 1 .623-.995 2.831 2.831 0 0 1 .968-.648 3.28 3.28 0 0 1 1.255-.232 3.104 3.104 0 0 1 .833.101 3.265 3.265 0 0 1 .613.229Zm3.273 3.196q-.029.14-.056.315-.028.175-.048.347-.02.171-.033.319-.013.148-.013.228h-.627l.011-.177q.007-.104.02-.213l.025-.217q.012-.107.028-.185h-.015a5.79 5.79 0 0 1-.232.341 1.645 1.645 0 0 1-.261.281 1.144 1.144 0 0 1-.32.192 1.232 1.232 0 0 1-.867-.019.948.948 0 0 1-.352-.263 1.211 1.211 0 0 1-.225-.437 2.128 2.128 0 0 1-.079-.613 3.072 3.072 0 0 1 .044-.487 2.996 2.996 0 0 1 .149-.556 2.855 2.855 0 0 1 .28-.555 2.112 2.112 0 0 1 .435-.484 2.076 2.076 0 0 1 .613-.343 2.381 2.381 0 0 1 .817-.129 4.345 4.345 0 0 1 .608.044q.313.044.623.107Zm-.173-2.065a3.171 3.171 0 0 0-.303-.052 2.564 2.564 0 0 0-.324-.021 1.475 1.475 0 0 0-.565.1 1.457 1.457 0 0 0-.425.265 1.571 1.571 0 0 0-.304.377 2.347 2.347 0 0 0-.196.437 2.565 2.565 0 0 0-.105.44 2.781 2.781 0 0 0-.031.393 1.763 1.763 0 0 0 .037.377.82.82 0 0 0 .116.285.544.544 0 0 0 .203.183.627.627 0 0 0 .292.064.796.796 0 0 0 .344-.075 1.183 1.183 0 0 0 .3-.204 1.664 1.664 0 0 0 .255-.299 2.923 2.923 0 0 0 .207-.359 3.068 3.068 0 0 0 .156-.385q.064-.197.105-.381Zm3.468.015h-.951l-.423 1.999q-.023.115-.044.247a1.367 1.367 0 0 0-.023.213.371.371 0 0 0 .083.271.359.359 0 0 0 .264.083.579.579 0 0 0 .113-.015 2.127 2.127 0 0 0 .289-.087c.048-.019.091-.035.127-.051l-.115.531a1.804 1.804 0 0 1-.292.095 1.364 1.364 0 0 1-.311.039 1.057 1.057 0 0 1-.357-.053.612.612 0 0 1-.241-.153.589.589 0 0 1-.137-.241 1.111 1.111 0 0 1-.043-.319 1.788 1.788 0 0 1 .02-.248 2.583 2.583 0 0 1 .049-.259l.435-2.051h-.627l.115-.512h.619l.196-.921a1.171 1.171 0 0 1 .112-.035l.213-.063.213-.064.108-.033-.232 1.116h.951Zm3.432.372a1.123 1.123 0 0 1-.133.544 1.101 1.101 0 0 1-.437.42 2.637 2.637 0 0 1-.807.271 6.92 6.92 0 0 1-1.237.1.471.471 0 0 0-.008.084v.073a1.255 1.255 0 0 0 .056.376.845.845 0 0 0 .171.309.807.807 0 0 0 .299.209 1.104 1.104 0 0 0 .433.077 1.832 1.832 0 0 0 .557-.097 2.393 2.393 0 0 0 .58-.277l-.115.596a2.373 2.373 0 0 1-.483.207 2.073 2.073 0 0 1-.627.088 1.701 1.701 0 0 1-.701-.129 1.232 1.232 0 0 1-.46-.344 1.339 1.339 0 0 1-.252-.496 2.225 2.225 0 0 1-.077-.592 2.731 2.731 0 0 1 .073-.639 2.599 2.599 0 0 1 .208-.573 2.433 2.433 0 0 1 .323-.484 2.099 2.099 0 0 1 .416-.373 1.929 1.929 0 0 1 .489-.24 1.745 1.745 0 0 1 .541-.084 1.564 1.564 0 0 1 .513.077 1.073 1.073 0 0 1 .372.212.903.903 0 0 1 .225.311.927.927 0 0 1 .077.376Zm-.615.029a.425.425 0 0 0-.171-.361.737.737 0 0 0-.455-.129 1.017 1.017 0 0 0-.435.097 1.405 1.405 0 0 0-.387.268 1.679 1.679 0 0 0-.305.409 1.904 1.904 0 0 0-.188.513 6.34 6.34 0 0 0 .895-.053 2.315 2.315 0 0 0 .6-.156.808.808 0 0 0 .339-.252.565.565 0 0 0 .107-.337Zm3.888 2.585a4.783 4.783 0 0 1-.243.816 2.167 2.167 0 0 1-.4.648 1.708 1.708 0 0 1-.613.427 2.299 2.299 0 0 1-.888.152 2.081 2.081 0 0 1-.628-.085 2.919 2.919 0 0 1-.488-.203l.115-.564a2.851 2.851 0 0 0 .493.236 1.627 1.627 0 0 0 .564.096 1.539 1.539 0 0 0 .569-.096 1.145 1.145 0 0 0 .416-.281 1.563 1.563 0 0 0 .291-.455 3.48 3.48 0 0 0 .193-.615l.129-.589h-.015a3.671 3.671 0 0 1-.275.388 1.569 1.569 0 0 1-.281.273 1.091 1.091 0 0 1-.309.161 1.221 1.221 0 0 1-.817-.037.933.933 0 0 1-.352-.267 1.245 1.245 0 0 1-.224-.441 2.133 2.133 0 0 1-.079-.611 2.893 2.893 0 0 1 .072-.644 2.813 2.813 0 0 1 .208-.6 2.532 2.532 0 0 1 .333-.521 2.221 2.221 0 0 1 .448-.411 2.101 2.101 0 0 1 .551-.271 2.06 2.06 0 0 1 .643-.097 5.341 5.341 0 0 1 .684.044q.343.044.629.099Zm.029-3a2.905 2.905 0 0 0-.304-.052 3.115 3.115 0 0 0-.381-.021 1.28 1.28 0 0 0-.633.16 1.592 1.592 0 0 0-.496.435 2.096 2.096 0 0 0-.324.639 2.519 2.519 0 0 0-.116.769 1.808 1.808 0 0 0 .035.368.879.879 0 0 0 .111.291.559.559 0 0 0 .195.192.571.571 0 0 0 .293.069.832.832 0 0 0 .373-.084 1.228 1.228 0 0 0 .315-.225 1.704 1.704 0 0 0 .256-.319 3.227 3.227 0 0 0 .199-.367 3.357 3.357 0 0 0 .145-.371q.059-.181.092-.329Zm4.676.899a3.14 3.14 0 0 1-.141.949 2.424 2.424 0 0 1-.409.787 1.971 1.971 0 0 1-.648.533 1.845 1.845 0 0 1-.86.196 1.572 1.572 0 0 1-.584-.103 1.211 1.211 0 0 1-.441-.296 1.317 1.317 0 0 1-.28-.467 1.849 1.849 0 0 1-.097-.621 3.077 3.077 0 0 1 .149-.971 2.457 2.457 0 0 1 .42-.785 1.969 1.969 0 0 1 .648-.523 1.835 1.835 0 0 1 .835-.189 1.557 1.557 0 0 1 .58.103 1.229 1.229 0 0 1 .444.296 1.339 1.339 0 0 1 .285.468 1.781 1.781 0 0 1 .101.621Zm-.619.029a1.408 1.408 0 0 0-.059-.425.905.905 0 0 0-.165-.313.719.719 0 0 0-.257-.195.812.812 0 0 0-.339-.068 1.071 1.071 0 0 0-.585.165 1.483 1.483 0 0 0-.441.436 2.169 2.169 0 0 0-.279.615 2.58 2.58 0 0 0-.097.705 1.404 1.404 0 0 0 .057.415.937.937 0 0 0 .161.317.699.699 0 0 0 .257.2.817.817 0 0 0 .344.069 1.085 1.085 0 0 0 .589-.164 1.457 1.457 0 0 0 .441-.435 2.119 2.119 0 0 0 .276-.616 2.64 2.64 0 0 0 .096-.707Zm3.727-.785h-.015a1.104 1.104 0 0 0-.193-.087.712.712 0 0 0-.237-.041.699.699 0 0 0-.408.137 1.5 1.5 0 0 0-.356.365 2.592 2.592 0 0 0-.28.517 3.517 3.517 0 0 0-.185.596l-.353 1.643h-.604l.529-2.504.067-.324a12.653 12.653 0 0 0 .111-.663 5.59 5.59 0 0 0 .033-.28h.596l-.025.233c-.009.083-.02.163-.029.239-.009.077-.02.148-.029.211l-.023.145h.015a4.107 4.107 0 0 1 .239-.379 1.737 1.737 0 0 1 .256-.289 1.079 1.079 0 0 1 .285-.185.805.805 0 0 1 .328-.067 1.055 1.055 0 0 1 .204.02c.067.013.128.028.183.043Zm1.359 3.756a4.416 4.416 0 0 1-.343.488 2.271 2.271 0 0 1-.363.359 1.372 1.372 0 0 1-.877.299 1.204 1.204 0 0 1-.189-.016 1.419 1.419 0 0 1-.168-.035l.115-.533a.556.556 0 0 0 .144.048.875.875 0 0 0 .173.019.793.793 0 0 0 .459-.14 1.428 1.428 0 0 0 .385-.427l.453-.7-.685-3.756h.627l.437 2.895a1.461 1.461 0 0 1 .013.156.869.869 0 0 1-.005.131h.023a2.751 2.751 0 0 1 .057-.125 1.327 1.327 0 0 1 .087-.155l1.672-2.901h.667Zm6.565-.627h-.619l-.792-5.28h.641l.581 4.135a1.987 1.987 0 0 1 .025.233 1.348 1.348 0 0 1-.004.225h.015l.041-.107c.016-.039.035-.079.056-.12l.063-.121c.021-.041.04-.077.057-.113l2.36-4.135h.711Zm5.435-1.208q-.029.14-.056.315-.028.175-.048.347-.02.171-.033.319-.013.148-.013.228h-.627c.003-.049.005-.108.011-.177s.011-.14.02-.213l.025-.217q.012-.107.027-.185h-.015a6.131 6.131 0 0 1-.232.341 1.647 1.647 0 0 1-.261.281 1.144 1.144 0 0 1-.32.192 1.232 1.232 0 0 1-.867-.019.948.948 0 0 1-.352-.263 1.211 1.211 0 0 1-.225-.437 2.128 2.128 0 0 1-.079-.613 3.072 3.072 0 0 1 .044-.487 2.996 2.996 0 0 1 .149-.556 2.845 2.845 0 0 1 .28-.555 2.107 2.107 0 0 1 .435-.484 2.075 2.075 0 0 1 .613-.343 2.381 2.381 0 0 1 .817-.129 4.349 4.349 0 0 1 .608.044q.313.044.623.107Zm-.173-2.065a3.171 3.171 0 0 0-.301-.052 2.564 2.564 0 0 0-.324-.021 1.473 1.473 0 0 0-.565.1 1.456 1.456 0 0 0-.425.265 1.567 1.567 0 0 0-.304.377 2.337 2.337 0 0 0-.197.437 2.548 2.548 0 0 0-.104.44 2.756 2.756 0 0 0-.031.393 1.763 1.763 0 0 0 .037.377.82.82 0 0 0 .116.285.544.544 0 0 0 .203.183.627.627 0 0 0 .293.064.796.796 0 0 0 .344-.075 1.181 1.181 0 0 0 .3-.204 1.665 1.665 0 0 0 .255-.299 2.923 2.923 0 0 0 .207-.359 3.095 3.095 0 0 0 .156-.385q.064-.197.105-.381Zm2.46 3.259a1.416 1.416 0 0 1-.208.048 1.472 1.472 0 0 1-.229.019.752.752 0 0 1-.556-.185.679.679 0 0 1-.184-.499 1.524 1.524 0 0 1 .019-.217q.019-.125.059-.309l.943-4.425h.611l-.947 4.44q-.033.155-.045.24a.96.96 0 0 0-.013.144.304.304 0 0 0 .083.229.372.372 0 0 0 .264.079 1.12 1.12 0 0 0 .167-.011.744.744 0 0 0 .135-.033Zm3.844-1.057a5.972 5.972 0 0 0-.06.299l-.053.299a8.214 8.214 0 0 0-.044.268l-.029.207h-.589q.019-.144.043-.3l.045-.289.048-.301h-.015a3.147 3.147 0 0 1-.285.381 2.135 2.135 0 0 1-.339.313 1.603 1.603 0 0 1-.387.212 1.193 1.193 0 0 1-.425.077 1.104 1.104 0 0 1-.425-.075.819.819 0 0 1-.304-.212.892.892 0 0 1-.183-.328 1.413 1.413 0 0 1-.061-.427 1.035 1.035 0 0 1 .015-.144l.033-.207c.012-.073.025-.148.043-.219a6.751 6.751 0 0 0 .039-.187l.437-2.065h.611l-.468 2.209a4.32 4.32 0 0 0-.029.137 5.957 5.957 0 0 0-.027.155 2.537 2.537 0 0 0-.02.141.945.945 0 0 0-.008.101.671.671 0 0 0 .135.44.491.491 0 0 0 .404.164.849.849 0 0 0 .324-.065 1.473 1.473 0 0 0 .315-.179 1.988 1.988 0 0 0 .289-.261 2.575 2.575 0 0 0 .247-.317 2.311 2.311 0 0 0 .188-.344 1.897 1.897 0 0 0 .113-.339l.395-1.841h.608Zm4.312-1.815a1.123 1.123 0 0 1-.133.544 1.1 1.1 0 0 1-.437.42 2.637 2.637 0 0 1-.807.271 6.92 6.92 0 0 1-1.237.1.471.471 0 0 0-.008.084v.073a1.255 1.255 0 0 0 .055.376.844.844 0 0 0 .171.309.807.807 0 0 0 .299.209 1.104 1.104 0 0 0 .433.077 1.832 1.832 0 0 0 .559-.097 2.393 2.393 0 0 0 .58-.277l-.115.596a2.372 2.372 0 0 1-.483.207 2.073 2.073 0 0 1-.627.088 1.703 1.703 0 0 1-.701-.129 1.233 1.233 0 0 1-.46-.344 1.339 1.339 0 0 1-.252-.496 2.225 2.225 0 0 1-.077-.592 2.731 2.731 0 0 1 .073-.639 2.608 2.608 0 0 1 .208-.573 2.44 2.44 0 0 1 .323-.484 2.1 2.1 0 0 1 .416-.373 1.928 1.928 0 0 1 .489-.24 1.747 1.747 0 0 1 .541-.084 1.563 1.563 0 0 1 .513.077 1.072 1.072 0 0 1 .372.212.904.904 0 0 1 .227.311.927.927 0 0 1 .077.376Zm-.615.029a.425.425 0 0 0-.172-.361.737.737 0 0 0-.455-.129 1.017 1.017 0 0 0-.435.097 1.407 1.407 0 0 0-.387.268 1.679 1.679 0 0 0-.305.409 1.904 1.904 0 0 0-.188.513 6.341 6.341 0 0 0 .895-.053 2.312 2.312 0 0 0 .6-.156.808.808 0 0 0 .339-.252.565.565 0 0 0 .107-.337Z"/></g><path class="d" d="M45.287 334.736V33.087m0 301.649h5.344m-5.344-43.093h5.344m-5.344-43.093h5.344m-5.344-43.093h5.344m-5.344-43.093h5.344m-5.344-43.093h5.344m-5.344-43.093h5.344m-5.344-43.093h5.344"/><g class="e"><path class="f" d="M34.097 335.335h1.585v.235h-1.585Zm4.363 1.279v.277h-2.151v-.119c0-.743.623-1.097 1.135-1.467.351-.253.647-.512.647-.948a.64.64 0 0 0-.704-.68.659.659 0 0 0-.723.741h-.307a.965.965 0 0 1 1.044-1.025.935.935 0 0 1 1.011.948c0 .545-.368.871-.771 1.173-.469.344-.981.651-1.005 1.116a12.485 12.485 0 0 1 .641-.02Zm.608-1.46c0-1.231.508-1.757 1.149-1.757.627 0 1.144.517 1.144 1.757 0 1.235-.508 1.767-1.14 1.767-.637 0-1.155-.517-1.155-1.767Zm1.973 0c0-.929-.273-1.48-.829-1.48-.545 0-.824.527-.824 1.48 0 .924.264 1.489.824 1.489.551 0 .829-.541.829-1.489Zm1.009 0c0-1.231.508-1.757 1.149-1.757.627 0 1.144.517 1.144 1.757 0 1.235-.508 1.767-1.14 1.767-.637 0-1.155-.517-1.155-1.767Zm1.973 0c0-.929-.273-1.48-.828-1.48-.545 0-.824.527-.824 1.48 0 .924.263 1.489.824 1.489.551 0 .828-.541.828-1.489Z"/></g><g class="e"><path class="f" d="M40.963 292.06c0-1.231.508-1.757 1.149-1.757.628 0 1.144.517 1.144 1.757 0 1.235-.508 1.767-1.14 1.767-.637 0-1.155-.517-1.155-1.767Zm1.973 0c0-.929-.273-1.48-.829-1.48-.545 0-.824.527-.824 1.48 0 .924.264 1.489.824 1.489.551 0 .829-.541.829-1.489Z"/></g><g class="e"><path class="f" d="M38.067 250.427v.277h-2.151v-.119c0-.743.623-1.097 1.135-1.467.349-.253.647-.512.647-.948a.64.64 0 0 0-.704-.68.659.659 0 0 0-.723.741h-.307a.967.967 0 0 1 1.044-1.025.936.936 0 0 1 1.011.948c0 .545-.369.871-.771 1.173-.469.344-.981.651-1.005 1.116a12.485 12.485 0 0 1 .641-.02Zm.608-1.46c0-1.231.508-1.757 1.149-1.757.627 0 1.144.517 1.144 1.757 0 1.235-.508 1.767-1.14 1.767-.637 0-1.155-.517-1.155-1.767Zm1.973 0c0-.929-.273-1.48-.828-1.48-.545 0-.824.527-.824 1.48 0 .924.264 1.489.824 1.489.551 0 .828-.541.828-1.489Zm1.009 0c0-1.231.508-1.757 1.149-1.757.628 0 1.144.517 1.144 1.757 0 1.235-.508 1.767-1.14 1.767-.637 0-1.155-.517-1.155-1.767Zm1.973 0c0-.929-.273-1.48-.828-1.48-.545 0-.824.527-.824 1.48 0 .924.263 1.489.824 1.489.551 0 .828-.541.828-1.489Z"/></g><g class="e"><path class="f" d="M38.248 206.568v.268h-.441v.776h-.301v-.776h-1.733v-.292l1.537-2.385h.499v2.409Zm-.743 0v-2.213l-1.408 2.213Zm1.316-.695c0-1.231.508-1.757 1.149-1.757.627 0 1.144.517 1.144 1.757 0 1.235-.508 1.767-1.14 1.767-.637 0-1.155-.517-1.155-1.767Zm1.973 0c0-.929-.273-1.48-.829-1.48-.545 0-.824.527-.824 1.48 0 .924.264 1.489.824 1.489.551 0 .829-.541.829-1.489Zm1.009 0c0-1.231.508-1.757 1.149-1.757.628 0 1.144.517 1.144 1.757 0 1.235-.508 1.767-1.14 1.767-.637 0-1.155-.517-1.155-1.767Zm1.973 0c0-.929-.273-1.48-.828-1.48-.545 0-.824.527-.824 1.48 0 .924.263 1.489.824 1.489.551 0 .828-.541.828-1.489Z"/></g><g class="e"><path class="f" d="M35.955 162.796c0-1 .273-1.772 1.179-1.772a.92.92 0 0 1 1.015.857h-.321a.632.632 0 0 0-.695-.58c-.68 0-.887.627-.843 1.547h.019a.883.883 0 0 1 .857-.541 1.028 1.028 0 0 1 1.029 1.125 1.053 1.053 0 0 1-1.096 1.135c-.885 0-1.144-.795-1.144-1.772Zm1.907.628a.74.74 0 0 0-.737-.843.779.779 0 0 0-.761.861.764.764 0 0 0 .761.848c.451 0 .737-.34.737-.867Zm.981-.641c0-1.231.508-1.757 1.149-1.757.627 0 1.144.517 1.144 1.757 0 1.235-.508 1.767-1.14 1.767-.637 0-1.153-.517-1.153-1.767Zm1.973 0c0-.929-.273-1.48-.828-1.48-.545 0-.824.527-.824 1.48 0 .924.263 1.489.824 1.489.551 0 .828-.541.828-1.489Zm1.009 0c0-1.231.508-1.757 1.149-1.757.627 0 1.144.517 1.144 1.757 0 1.235-.508 1.767-1.14 1.767-.637 0-1.155-.517-1.155-1.767Zm1.973 0c0-.929-.273-1.48-.828-1.48-.545 0-.824.527-.824 1.48 0 .924.263 1.489.824 1.489.551 0 .828-.541.828-1.489Z"/></g><g class="e"><path class="f" d="M36.405 119.721v-.037a.903.903 0 0 1-.512-.824c0-.532.44-.924 1.087-.924s1.092.383 1.092.924a.904.904 0 0 1-.508.824v.037a.909.909 0 0 1 .508.829c0 .541-.441.924-1.092.924-.652 0-1.087-.388-1.087-.924a.904.904 0 0 1 .512-.829Zm.575-.144a.688.688 0 1 0 0-1.364.677.677 0 0 0-.767.68.685.685 0 0 0 .767.685Zm0 1.619a.687.687 0 1 0-.767-.685.68.68 0 0 0 .767.685Zm1.743-1.508c0-1.231.508-1.757 1.149-1.757.628 0 1.144.517 1.144 1.757 0 1.235-.508 1.767-1.14 1.767-.637 0-1.155-.517-1.155-1.767Zm1.973 0c0-.929-.273-1.48-.829-1.48-.545 0-.824.527-.824 1.48 0 .924.264 1.489.824 1.489.551 0 .829-.541.829-1.489Zm1.009 0c0-1.231.508-1.757 1.149-1.757.627 0 1.144.517 1.144 1.757 0 1.235-.508 1.767-1.14 1.767-.637 0-1.155-.517-1.155-1.767Zm1.973 0c0-.929-.273-1.48-.828-1.48-.545 0-.824.527-.824 1.48 0 .924.264 1.489.824 1.489.551 0 .828-.541.828-1.489Z"/></g><g class="e"><path class="f" d="M33.349 75.475h.096c.469 0 .771-.215.828-.593h.277v3.452h-.296v-2.629h-.905Zm2.264 1.121c0-1.231.508-1.757 1.149-1.757.627 0 1.144.517 1.144 1.757 0 1.235-.508 1.767-1.14 1.767-.637 0-1.155-.517-1.155-1.767Zm1.973 0c0-.929-.273-1.48-.828-1.48-.545 0-.824.527-.824 1.48 0 .924.264 1.489.824 1.489.551 0 .828-.541.828-1.489Zm1.009 0c0-1.231.508-1.757 1.149-1.757.627 0 1.144.517 1.144 1.757 0 1.235-.508 1.767-1.14 1.767-.637 0-1.155-.517-1.155-1.767Zm1.973 0c0-.929-.273-1.48-.829-1.48-.545 0-.824.527-.824 1.48 0 .924.264 1.489.824 1.489.552 0 .829-.541.829-1.489Zm1.009 0c0-1.231.508-1.757 1.149-1.757.628 0 1.144.517 1.144 1.757 0 1.235-.508 1.767-1.14 1.767-.637 0-1.155-.517-1.155-1.767Zm1.973 0c0-.929-.273-1.48-.828-1.48-.545 0-.824.527-.824 1.48 0 .924.263 1.489.824 1.489.551 0 .828-.541.828-1.489Z"/></g><g class="e"><path class="f" d="M33.349 32.383h.096c.469 0 .771-.215.828-.593h.277v3.452h-.296v-2.629h-.905Zm4.396 2.581v.277h-2.151v-.12c0-.743.623-1.096 1.135-1.465.349-.255.647-.513.647-.948a.64.64 0 0 0-.704-.68.659.659 0 0 0-.723.741h-.307a.967.967 0 0 1 1.044-1.024.936.936 0 0 1 1.011.948c0 .547-.369.872-.771 1.173-.469.344-.981.652-1.005 1.116a12.509 12.509 0 0 1 .641-.019Zm.608-1.461c0-1.231.508-1.757 1.149-1.757.627 0 1.144.517 1.144 1.757 0 1.235-.508 1.767-1.14 1.767-.637 0-1.155-.517-1.155-1.767Zm1.973 0c0-.929-.273-1.48-.828-1.48-.545 0-.824.527-.824 1.48 0 .924.263 1.489.824 1.489.551 0 .828-.541.828-1.489Zm1.011 0c0-1.231.508-1.757 1.149-1.757.627 0 1.144.517 1.144 1.757 0 1.235-.508 1.767-1.14 1.767-.637 0-1.155-.517-1.155-1.767Zm1.973 0c0-.929-.273-1.48-.828-1.48-.545 0-.824.527-.824 1.48 0 .924.264 1.489.824 1.489.551 0 .828-.541.828-1.489Z"/></g><g class="e"><path class="f" d="M29.248 206.22v-.704a2.283 2.283 0 0 1 1.363.884 2.619 2.619 0 0 1 .512 1.613 2.361 2.361 0 0 1-.736 1.804 2.767 2.767 0 0 1-1.956.677 3.021 3.021 0 0 1-2.117-.763 2.535 2.535 0 0 1-.829-1.959 2.412 2.412 0 0 1 .512-1.553 2.109 2.109 0 0 1 1.348-.784v.708a1.599 1.599 0 0 0-.888.589 1.663 1.663 0 0 0-.339 1.035 1.835 1.835 0 0 0 .656 1.44 2.472 2.472 0 0 0 1.664.563 2.207 2.207 0 0 0 1.495-.489 1.627 1.627 0 0 0 .556-1.281 1.879 1.879 0 0 0-.339-1.093 1.833 1.833 0 0 0-.901-.685Zm.767-1.311a1.209 1.209 0 0 1-.951-.407 1.663 1.663 0 0 1-.36-1.14v-1.252l-.196-.023a.756.756 0 0 0-.957.836 1.068 1.068 0 0 0 .188.656.823.823 0 0 0 .512.316v.633a1.333 1.333 0 0 1-.891-.54 1.845 1.845 0 0 1-.324-1.117 1.285 1.285 0 0 1 1.616-1.411l1.605.232q.317.033.317-.203a.28.28 0 0 0-.029-.144l.504.073a1.048 1.048 0 0 1 .044.303.573.573 0 0 1-.179.465.659.659 0 0 1-.528.101v.052a1.252 1.252 0 0 1 .544.536 1.675 1.675 0 0 1 .192.808 1.268 1.268 0 0 1-.305.885 1.032 1.032 0 0 1-.803.337Zm-.096-.681a.607.607 0 0 0 .496-.203.867.867 0 0 0 .167-.567 1.152 1.152 0 0 0-.328-.829 1.412 1.412 0 0 0-.865-.411l-.203-.025v1.093a1.079 1.079 0 0 0 .199.7.655.655 0 0 0 .533.244Zm-2.264-3.52-.541-.073v-.681l-1.193-.167-.247-.685 1.44.195v-.873l.541.081v.877l2.287.316a.621.621 0 0 0 .468-.065.495.495 0 0 0 .137-.401 1.005 1.005 0 0 0-.048-.332l.537.081a1.924 1.924 0 0 1 .059.481.873.873 0 0 1-.305.743 1.065 1.065 0 0 1-.832.156l-2.301-.324Zm3.468-4.327a1.729 1.729 0 0 1-.497 1.296 1.875 1.875 0 0 1-1.371.483 2.293 2.293 0 0 1-1.595-.567 1.875 1.875 0 0 1-.625-1.461 1.689 1.689 0 0 1 .445-1.215 1.571 1.571 0 0 1 1.193-.467 2.292 2.292 0 0 1 .541.069v2.964a1.32 1.32 0 0 0 1.011-.237 1.045 1.045 0 0 0 .371-.856 1.355 1.355 0 0 0-.199-.727 1.072 1.072 0 0 0-.523-.451v-.663a1.605 1.605 0 0 1 .907.667 2.029 2.029 0 0 1 .343 1.167Zm-2.389 1.023v-2.293a1.06 1.06 0 0 0-.844.243 1.029 1.029 0 0 0-.324.807 1.181 1.181 0 0 0 .315.836 1.359 1.359 0 0 0 .852.408Zm2.747-3.255a.729.729 0 0 1-.513-.192.992.992 0 0 1-.285-.515l-.056-.008a.505.505 0 0 1-.199.229.544.544 0 0 1-.299.087.655.655 0 0 1-.437-.168.859.859 0 0 1-.269-.444l-.063-.008a1.081 1.081 0 0 1-.943.437 1.263 1.263 0 0 1-.993-.445 1.641 1.641 0 0 1-.387-1.123 1.424 1.424 0 0 1 .207-.811 1.211 1.211 0 0 1-.532-.488 1.443 1.443 0 0 1-.2-.76l.544.075a1.127 1.127 0 0 0 .121.513.577.577 0 0 0 .307.308 1.191 1.191 0 0 1 .825-.28 1.219 1.219 0 0 1 .972.445 1.677 1.677 0 0 1 .368 1.123 2.104 2.104 0 0 1-.067.56.516.516 0 0 0 .127.324.355.355 0 0 0 .271.121q.303 0 .303-.481v-1.02a1.163 1.163 0 0 1 .251-.793.864.864 0 0 1 .684-.285.985.985 0 0 1 .884.521 2.725 2.725 0 0 1 .317 1.42 2.479 2.479 0 0 1-.248 1.229.764.764 0 0 1-.687.427Zm-3.085-1.229a.737.737 0 0 0 .561-.219.819.819 0 0 0 .208-.588.912.912 0 0 0-.243-.652.823.823 0 0 0-.627-.257.733.733 0 0 0-.56.219.821.821 0 0 0-.207.587.912.912 0 0 0 .243.652.819.819 0 0 0 .623.257Zm2.971.619q.56 0 .56-1.06a1.948 1.948 0 0 0-.184-.935.56.56 0 0 0-.504-.332q-.405 0-.405.533v1.064a.86.86 0 0 0 .149.532.461.461 0 0 0 .385.197Zm-2.136-3.764a2.241 2.241 0 0 1-1.576-.567 1.917 1.917 0 0 1-.619-1.476 1.712 1.712 0 0 1 .515-1.296 1.915 1.915 0 0 1 1.381-.493 2.244 2.244 0 0 1 1.584.575 1.905 1.905 0 0 1 .608 1.469 1.713 1.713 0 0 1-.504 1.3 1.923 1.923 0 0 1-1.388.489Zm0-.671a1.419 1.419 0 0 0 .961-.307 1.029 1.029 0 0 0 .353-.821 1.204 1.204 0 0 0-.453-.972 1.725 1.725 0 0 0-1.16-.383 1.427 1.427 0 0 0-.961.304 1.016 1.016 0 0 0-.353.811 1.232 1.232 0 0 0 .452.98 1.724 1.724 0 0 0 1.16.387Zm1.819-4.533v.652l-3.936-.552v-.575l.799.025v-.041a1.608 1.608 0 0 1-.857-1.403l.585.092a1.42 1.42 0 0 0 .431 1.045 2.02 2.02 0 0 0 1.152.493Zm-.107-2.924-3.831.96v-.692l1.908-.416 1.216-.224v-.044l-1.216-.552-1.907-.891v-.723l4.312 2.125a1.82 1.82 0 0 1 .741.609 1.579 1.579 0 0 1 .217.856 1.504 1.504 0 0 1-.052.412l-.541-.081a1.064 1.064 0 0 0 .052-.332.816.816 0 0 0-.46-.769Zm-1.599-4.385v-.711a1.124 1.124 0 0 0 .888-.359 1.408 1.408 0 0 0 .335-.989 1.44 1.44 0 0 0-.291-.939.94.94 0 0 0-.767-.357.701.701 0 0 0-.663.324 1.715 1.715 0 0 0-.225.512l-.177.677q-.376 1.367-1.392 1.367a1.396 1.396 0 0 1-1.141-.527 2.104 2.104 0 0 1-.433-1.388 2.008 2.008 0 0 1 .455-1.375 1.615 1.615 0 0 1 1.224-.54v.708a1.088 1.088 0 0 0-.813.337 1.232 1.232 0 0 0-.309.879 1.304 1.304 0 0 0 .252.836.812.812 0 0 0 .668.317.688.688 0 0 0 .523-.204 1.428 1.428 0 0 0 .305-.639l.196-.799a1.697 1.697 0 0 1 .525-.913 1.353 1.353 0 0 1 .903-.317 1.557 1.557 0 0 1 1.252.563 2.251 2.251 0 0 1 .464 1.495 2.144 2.144 0 0 1-.483 1.469 1.679 1.679 0 0 1-1.296.575Zm.361-7.88v-.663a1.685 1.685 0 0 1 1.035.633 1.963 1.963 0 0 1 .383 1.223 1.651 1.651 0 0 1-.5 1.265 1.885 1.885 0 0 1-1.344.469 2.299 2.299 0 0 1-1.599-.581 1.936 1.936 0 0 1-.644-1.499 1.739 1.739 0 0 1 .379-1.149 1.383 1.383 0 0 1 .98-.504v.656a.847.847 0 0 0-.563.328 1.069 1.069 0 0 0-.215.677 1.26 1.26 0 0 0 .475 1.009 1.799 1.799 0 0 0 1.193.393 1.359 1.359 0 0 0 .923-.292.989.989 0 0 0 .337-.787 1.271 1.271 0 0 0-.237-.763 1.009 1.009 0 0 0-.601-.415Zm-.475-1.392a2.241 2.241 0 0 1-1.576-.567 1.917 1.917 0 0 1-.619-1.476 1.712 1.712 0 0 1 .515-1.296 1.915 1.915 0 0 1 1.381-.493 2.244 2.244 0 0 1 1.584.575 1.904 1.904 0 0 1 .608 1.469 1.713 1.713 0 0 1-.504 1.3 1.925 1.925 0 0 1-1.388.489Zm0-.671a1.42 1.42 0 0 0 .961-.307 1.031 1.031 0 0 0 .353-.821 1.204 1.204 0 0 0-.453-.972 1.725 1.725 0 0 0-1.16-.383 1.427 1.427 0 0 0-.961.304 1.017 1.017 0 0 0-.353.812 1.231 1.231 0 0 0 .452.98 1.723 1.723 0 0 0 1.16.387Zm1.819-4.533v.652l-3.936-.552v-.575l.799.025v-.041a1.608 1.608 0 0 1-.857-1.403l.585.092a1.42 1.42 0 0 0 .431 1.045 2.02 2.02 0 0 0 1.152.493Zm.073-3.637a1.729 1.729 0 0 1-.497 1.296 1.875 1.875 0 0 1-1.371.483 2.293 2.293 0 0 1-1.595-.567 1.875 1.875 0 0 1-.625-1.461 1.689 1.689 0 0 1 .445-1.215 1.571 1.571 0 0 1 1.193-.468 2.292 2.292 0 0 1 .541.071v2.964a1.321 1.321 0 0 0 1.011-.237 1.045 1.045 0 0 0 .371-.856 1.356 1.356 0 0 0-.199-.727 1.073 1.073 0 0 0-.523-.452v-.663a1.605 1.605 0 0 1 .907.667 2.031 2.031 0 0 1 .343 1.167Zm-2.389 1.023v-2.293a1.06 1.06 0 0 0-.844.243 1.028 1.028 0 0 0-.324.807 1.181 1.181 0 0 0 .315.836 1.359 1.359 0 0 0 .852.409Z"/></g><g class="e"><path class="f" d="M256.011 17.127h2.159a1.348 1.348 0 0 0 .511 1.06 2.135 2.135 0 0 0 1.339.372 1.983 1.983 0 0 0 1.18-.307.972.972 0 0 0 .423-.831.771.771 0 0 0-.297-.669.815.815 0 0 0-.309-.183 2.96 2.96 0 0 0-.568-.171l-1.489-.309q-.233-.044-.631-.14a6.044 6.044 0 0 1-.7-.259 3.04 3.04 0 0 1-.72-.467 2.423 2.423 0 0 1-.505-.76 2.473 2.473 0 0 1-.208-1.013 2.579 2.579 0 0 1 .997-2.101 4.16 4.16 0 0 1 2.664-.801 4.24 4.24 0 0 1 2.652.757 2.495 2.495 0 0 1 1.016 2.033h-2.159a1.105 1.105 0 0 0-.464-.865 1.917 1.917 0 0 0-1.127-.296 1.748 1.748 0 0 0-1.023.256.823.823 0 0 0-.36.711q0 .681.985.935a1.488 1.488 0 0 0 .245.051.116.116 0 0 0 .035.009q.023.003.035.007a.04.04 0 0 1 .019.009l1.528.296q2.595.524 2.595 2.727a2.645 2.645 0 0 1-1.041 2.241 5.389 5.389 0 0 1-5.707-.044 2.777 2.777 0 0 1-1.073-2.248Zm13.42.416h1.951a2.571 2.571 0 0 1-.953 1.937 3.433 3.433 0 0 1-2.267.732 3.315 3.315 0 0 1-2.507-.979 3.612 3.612 0 0 1-.947-2.613 3.595 3.595 0 0 1 .96-2.601 3.729 3.729 0 0 1 4.735-.271 2.619 2.619 0 0 1 .977 1.919h-1.951a1.133 1.133 0 0 0-.423-.751 1.359 1.359 0 0 0-.845-.259 1.239 1.239 0 0 0-1.083.515 2.512 2.512 0 0 0-.363 1.461 2.397 2.397 0 0 0 .379 1.461 1.247 1.247 0 0 0 1.055.501 1.303 1.303 0 0 0 .875-.287 1.192 1.192 0 0 0 .408-.767Zm6.136-4.513a3.293 3.293 0 0 1 2.512 1.009 3.585 3.585 0 0 1 .953 2.595 3.577 3.577 0 0 1-.953 2.588 3.723 3.723 0 0 1-5.031 0 3.595 3.595 0 0 1-.96-2.6 3.595 3.595 0 0 1 .96-2.601 3.333 3.333 0 0 1 2.519-.991Zm-1.471 3.592a2.343 2.343 0 0 0 .395 1.44 1.344 1.344 0 0 0 2.137-.009 2.388 2.388 0 0 0 .392-1.443 2.333 2.333 0 0 0-.392-1.427 1.279 1.279 0 0 0-1.085-.524 1.241 1.241 0 0 0-1.055.533 2.365 2.365 0 0 0-.392 1.429Zm8.073 3.465h-1.963v-6.931h1.716l.247 1.319h.083q.517-1.445 2.145-1.445v1.716a2.137 2.137 0 0 0-1.669.604 2.541 2.541 0 0 0-.559 1.777Zm5.088-7.651h-1.963v-1.919h1.963Zm0 7.651h-1.963v-6.931h1.963Zm3.567 0h-1.963v-6.931h1.729l.233 1.281h.12a2.312 2.312 0 0 1 2.272-1.408 2.125 2.125 0 0 1 1.767.771 3.355 3.355 0 0 1 .612 2.14v4.147h-1.976v-3.944q0-1.484-1.269-1.484a1.393 1.393 0 0 0-1.117.48 1.915 1.915 0 0 0-.411 1.288Zm5.7.815a1.267 1.267 0 0 1 .293-.831 1.413 1.413 0 0 1 .767-.476v-.101a1.176 1.176 0 0 1-.568-.404 1.025 1.025 0 0 1-.208-.631 1.193 1.193 0 0 1 .272-.78 1.58 1.58 0 0 1 .752-.489v-.101a1.912 1.912 0 0 1-1.048-1.799 2.005 2.005 0 0 1 .776-1.641 3.208 3.208 0 0 1 2.039-.619 3.02 3.02 0 0 1 1.099.164 1.872 1.872 0 0 1 .84-1.048 2.756 2.756 0 0 1 1.489-.397v1.502q-.947 0-1.219.46a1.973 1.973 0 0 1 .764 1.641 2.016 2.016 0 0 1-.764 1.629 3.156 3.156 0 0 1-2.013.612 3.667 3.667 0 0 1-.839-.095.451.451 0 0 0-.367.455q0 .467.845.467h1.547a2.545 2.545 0 0 1 1.711.521 1.785 1.785 0 0 1 .605 1.429q0 2.184-3.699 2.184a4.836 4.836 0 0 1-2.297-.432 1.341 1.341 0 0 1-.776-1.221Zm1.824-.385q0 .656 1.357.656 1.641 0 1.641-.727 0-.505-.676-.505h-1.552q-.771 0-.771.575Zm1.344-4.267a.977.977 0 0 0 .713-.259.919.919 0 0 0 .265-.688.884.884 0 0 0-.268-.676.993.993 0 0 0-.711-.252 1.008 1.008 0 0 0-.72.249.887.887 0 0 0-.265.679.904.904 0 0 0 .275.685.987.987 0 0 0 .711.263Zm9.709 3.837h-2.089v-9.424h6.667v1.799h-4.577v2.581h4.065v1.711h-4.065Zm10.315-6.931h1.963v6.931h-1.717l-.259-1.269h-.113a2.284 2.284 0 0 1-2.253 1.395 2.103 2.103 0 0 1-1.717-.717 3.067 3.067 0 0 1-.593-2.011v-4.329h1.976v4.021q0 1.42 1.219 1.42a1.348 1.348 0 0 0 1.089-.487 1.949 1.949 0 0 0 .408-1.293Zm5.455 6.931h-1.963v-6.931h1.729l.233 1.281h.12a2.312 2.312 0 0 1 2.272-1.408 2.125 2.125 0 0 1 1.767.771 3.355 3.355 0 0 1 .612 2.14v4.147h-1.976v-3.944q0-1.484-1.269-1.484a1.393 1.393 0 0 0-1.117.48 1.915 1.915 0 0 0-.411 1.288Zm10.585-2.544h1.951a2.571 2.571 0 0 1-.953 1.937 3.433 3.433 0 0 1-2.267.732 3.315 3.315 0 0 1-2.507-.979 3.612 3.612 0 0 1-.947-2.613 3.595 3.595 0 0 1 .96-2.601 3.729 3.729 0 0 1 4.733-.271 2.619 2.619 0 0 1 .979 1.919h-1.951a1.133 1.133 0 0 0-.423-.751 1.359 1.359 0 0 0-.845-.259 1.239 1.239 0 0 0-1.083.515 2.512 2.512 0 0 0-.363 1.461 2.397 2.397 0 0 0 .379 1.461 1.247 1.247 0 0 0 1.055.501 1.303 1.303 0 0 0 .875-.287 1.192 1.192 0 0 0 .408-.767Zm5.467-4.387h4.444v6.931h-1.963v-5.34h-2.481v2.948a1.08 1.08 0 0 0 .185.697.776.776 0 0 0 .628.224 3.545 3.545 0 0 0 .669-.069v1.54a6.376 6.376 0 0 1-1.237.113q-1.395 0-1.849-.72a2.187 2.187 0 0 1-.296-.688 3.821 3.821 0 0 1-.083-.852v-3.195h-1.111v-1.591h1.111v-1.702l1.983-.764Zm2.481-.72v-1.919h1.963v1.919Zm6.616.593a3.293 3.293 0 0 1 2.512 1.009 3.585 3.585 0 0 1 .953 2.595 3.577 3.577 0 0 1-.953 2.588 3.723 3.723 0 0 1-5.031 0 3.595 3.595 0 0 1-.96-2.6 3.595 3.595 0 0 1 .96-2.601 3.333 3.333 0 0 1 2.519-.991Zm-1.471 3.592a2.343 2.343 0 0 0 .395 1.44 1.344 1.344 0 0 0 2.137-.009 2.388 2.388 0 0 0 .392-1.443 2.333 2.333 0 0 0-.392-1.427 1.279 1.279 0 0 0-1.085-.524 1.241 1.241 0 0 0-1.055.533 2.365 2.365 0 0 0-.392 1.429Zm8.073 3.465h-1.963v-6.931h1.729l.233 1.281h.12a2.312 2.312 0 0 1 2.272-1.408 2.125 2.125 0 0 1 1.767.771 3.355 3.355 0 0 1 .612 2.14v4.147h-1.976v-3.943q0-1.484-1.269-1.484a1.393 1.393 0 0 0-1.117.48 1.915 1.915 0 0 0-.411 1.288Zm5.877-2.171h1.944a.811.811 0 0 0 .309.668 1.345 1.345 0 0 0 .84.233 1.296 1.296 0 0 0 .748-.183.589.589 0 0 0 .263-.511.487.487 0 0 0-.259-.492 2.221 2.221 0 0 0-.467-.159l-1.231-.203q-2.027-.367-2.027-2.008a1.951 1.951 0 0 1 .776-1.641 4.035 4.035 0 0 1 4.208-.004 1.985 1.985 0 0 1 .804 1.593h-1.937q-.019-.789-.997-.789a1.097 1.097 0 0 0-.656.171.565.565 0 0 0-.233.487.513.513 0 0 0 .171.404.869.869 0 0 0 .221.145.955.955 0 0 0 .192.067q.079.016.307.048l1.193.196q1.951.309 1.951 2.001a1.959 1.959 0 0 1-.817 1.671 4.385 4.385 0 0 1-4.476-.023 1.993 1.993 0 0 1-.824-1.673Z"/></g><g class="e"><path class="f" d="M256.947 26.824h.332v1.648h.032a1.02 1.02 0 0 1 .969-.585c.68 0 1.169.568 1.169 1.416 0 .837-.484 1.411-1.205 1.411a.961.961 0 0 1-.932-.527h-.032l-.016.475h-.316Zm1.253 3.58c.459 0 .905-.305.905-1.1 0-.8-.443-1.1-.9-1.1a.889.889 0 0 0-.927.911v.405a.892.892 0 0 0 .921.884Zm2.017-3.523h.327v.537h-.327Zm0 1.059h.327v2.723h-.327Zm2.18 1.105h.764v-.221c0-.48-.284-.664-.707-.664-.427 0-.689.216-.711.537h-.316a.941.941 0 0 1 1.043-.811.905.905 0 0 1 1.016.975v1.311c0 .105 0 .225.185.225a.484.484 0 0 0 .1-.011v.275a.516.516 0 0 1-.175.027c-.263 0-.421-.152-.416-.489h-.032a.967.967 0 0 1-.927.516.819.819 0 0 1-.911-.8c0-.579.432-.869 1.085-.869Zm-.143 1.375a.877.877 0 0 0 .907-.932v-.163h-.759c-.505 0-.748.211-.748.559s.237.537.6.537Zm3.071.016c.432 0 .696-.2.696-.521a.415.415 0 0 0-.395-.421l-.616-.121c-.505-.1-.7-.363-.7-.695 0-.5.395-.789.989-.789.632 0 1 .332 1.005.821h-.316c-.015-.379-.273-.548-.684-.548-.432 0-.659.189-.659.479 0 .353.327.411.468.437l.564.105c.5.095.695.369.695.748 0 .468-.416.785-1.043.785-.669 0-1.08-.348-1.08-.869h.316c0 .353.284.589.759.589Zm3.065-2.037h1.932v.343h-1.932Zm0 1.063h1.932v.337h-1.932Zm4.06-.711c0-1.353.559-1.932 1.264-1.932.689 0 1.259.568 1.259 1.932 0 1.359-.559 1.943-1.253 1.943-.7 0-1.269-.569-1.269-1.943Zm2.169 0c0-1.021-.3-1.627-.911-1.627-.6 0-.907.579-.907 1.627 0 1.016.289 1.637.907 1.637.605 0 .911-.595.911-1.637Zm.96 2.417c.305 0 .332-.2.332-.353v-.152h-.295v-.575h.521v.753a.509.509 0 0 1-.559.527Zm2.696-.785v-.032a.38.38 0 0 1-.257-.359.445.445 0 0 1 .337-.432v-.032a.857.857 0 0 1-.379-.737.907.907 0 0 1 .989-.905 1.055 1.055 0 0 1 .548.132.745.745 0 0 1 .727-.443v.295a.503.503 0 0 0-.521.3.911.911 0 0 1 .237.631.892.892 0 0 1-.979.896 1.569 1.569 0 0 1-.384-.048.277.277 0 0 0-.269.279c0 .248.268.252.379.252h.764c.489 0 .779.241.779.641 0 .516-.484.769-1.253.769-.785 0-1.121-.275-1.121-.668a.56.56 0 0 1 .405-.543Zm.727.948c.664 0 .916-.195.916-.489 0-.369-.4-.369-.468-.369h-.783c-.343 0-.5.169-.5.405 0 .311.268.452.837.452Zm-.037-1.885a.649.649 0 1 0-.659-.648.604.604 0 0 0 .659.648Zm1.955-1.507h.295l.041.564h.025a.919.919 0 0 1 .9-.6v.305c-.611.021-.932.416-.932 1.159v1.296h-.332Zm2.665 1.105h.763v-.221c0-.48-.284-.664-.705-.664-.427 0-.689.216-.711.537h-.316a.941.941 0 0 1 1.043-.811.905.905 0 0 1 1.016.975v1.311c0 .105 0 .225.184.225a.484.484 0 0 0 .1-.011v.275a.519.519 0 0 1-.175.027c-.263 0-.421-.152-.416-.489h-.032a.967.967 0 0 1-.927.516.819.819 0 0 1-.911-.8c0-.579.432-.869 1.085-.869Zm-.143 1.375a.877.877 0 0 0 .907-.932v-.163h-.759c-.505 0-.748.211-.748.559s.237.537.6.537Zm2.239-3.539h.327v.537h-.327Zm0 1.059h.327v2.723h-.327Zm1.337 0h.289l.048.511h.031a1.007 1.007 0 0 1 .927-.563c.579 0 .948.416.948 1.085v1.691h-.332v-1.659c0-.548-.252-.8-.695-.8-.521 0-.885.416-.885 1.037v1.423h-.332Zm4.461.459h1.932v.343h-1.932Zm0 1.063h1.932v.337h-1.932Zm6.468-.025a1.217 1.217 0 0 1-1.248 1.28 1.119 1.119 0 0 1-1.169-1.2h.343a.813.813 0 0 0 .832.895.867.867 0 0 0 .88-.959.887.887 0 0 0-.885-.979.869.869 0 0 0-.779.411h-.311l.073-2.017h2.107v.3h-1.812l-.063 1.327.016.005a1.129 1.129 0 0 1 .821-.327 1.192 1.192 0 0 1 1.196 1.264Zm.759-.684c0-1.353.559-1.932 1.264-1.932.689 0 1.259.568 1.259 1.932 0 1.359-.557 1.943-1.253 1.943-.7 0-1.269-.569-1.269-1.943Zm2.169 0c0-1.021-.3-1.627-.911-1.627-.6 0-.907.579-.907 1.627 0 1.016.289 1.637.907 1.637.605 0 .911-.595.911-1.637Zm1.112 0c0-1.353.559-1.932 1.264-1.932.689 0 1.259.568 1.259 1.932 0 1.359-.559 1.943-1.253 1.943-.7 0-1.269-.569-1.269-1.943Zm2.169 0c0-1.021-.3-1.627-.911-1.627-.6 0-.907.579-.907 1.627 0 1.016.289 1.637.907 1.637.605 0 .911-.595.911-1.637Zm.959 2.417c.305 0 .332-.2.332-.353v-.152h-.295v-.575h.521v.753a.509.509 0 0 1-.559.527Zm2.612-3.228v-.88l.332-.127v1.005h.616v.284h-.616v1.723c0 .175.005.452.4.452a.644.644 0 0 0 .216-.031v.295a.993.993 0 0 1-.28.037c-.463 0-.668-.28-.668-.732v-1.743h-.48v-.284Zm2.475 1.105h.764v-.221c0-.48-.284-.664-.707-.664-.427 0-.689.216-.711.537h-.316a.941.941 0 0 1 1.043-.811.905.905 0 0 1 1.016.975v1.311c0 .105 0 .225.185.225a.484.484 0 0 0 .1-.011v.275a.516.516 0 0 1-.175.027c-.263 0-.421-.152-.416-.489h-.032a.967.967 0 0 1-.927.516.819.819 0 0 1-.911-.8c0-.579.432-.869 1.085-.869Zm-.143 1.375a.877.877 0 0 0 .907-.932v-.163h-.759c-.505 0-.748.211-.748.559s.237.537.6.537Zm2.239-2.48h.295l.041.564h.025a.919.919 0 0 1 .9-.6v.305c-.611.021-.932.416-.932 1.159v1.296h-.332Zm1.985 2.444v-.032a.38.38 0 0 1-.259-.359.445.445 0 0 1 .337-.432v-.032a.857.857 0 0 1-.379-.737.907.907 0 0 1 .989-.905 1.055 1.055 0 0 1 .548.132.745.745 0 0 1 .727-.443v.295a.503.503 0 0 0-.523.3.911.911 0 0 1 .237.631.892.892 0 0 1-.979.896 1.569 1.569 0 0 1-.384-.048.277.277 0 0 0-.268.279c0 .248.268.252.379.252h.764c.489 0 .779.241.779.641 0 .516-.484.769-1.253.769-.785 0-1.121-.275-1.121-.668a.56.56 0 0 1 .405-.543Zm.727.948c.664 0 .916-.195.916-.489 0-.369-.4-.369-.468-.369h-.785c-.343 0-.5.169-.5.405 0 .311.268.452.837.452Zm-.037-1.885a.649.649 0 1 0-.659-.648.604.604 0 0 0 .659.648Zm1.691-.137c0-.864.505-1.423 1.259-1.423a1.109 1.109 0 0 1 1.179 1.221 2.12 2.12 0 0 1-.016.259h-2.08c-.011.679.363 1.059.932 1.059a.789.789 0 0 0 .841-.568h.337a1.112 1.112 0 0 1-1.195.859c-.748 0-1.259-.548-1.259-1.405Zm2.107-.216c0-.589-.305-.916-.848-.916a.885.885 0 0 0-.916.916Zm1.169-1.153v-.88l.332-.127v1.005h.616v.284h-.616v1.723c0 .175.005.452.4.452a.641.641 0 0 0 .215-.031v.295a.991.991 0 0 1-.279.037c-.463 0-.668-.28-.668-.732v-1.743h-.479v-.284Zm2.881.459h1.933v.343h-1.933Zm0 1.063h1.933v.337h-1.933Zm6.404.896v.305h-2.364v-.132c0-.816.685-1.205 1.248-1.611.384-.28.711-.564.711-1.043a.704.704 0 0 0-.775-.748.725.725 0 0 0-.796.816h-.337a1.061 1.061 0 0 1 1.148-1.127 1.028 1.028 0 0 1 1.111 1.043c0 .6-.405.959-.848 1.291-.516.379-1.08.716-1.107 1.227.2-.011.463-.021.705-.021Zm.669-1.607c0-1.353.559-1.932 1.264-1.932.689 0 1.259.568 1.259 1.932 0 1.359-.559 1.943-1.253 1.943-.7 0-1.269-.569-1.269-1.943Zm2.169 0c0-1.021-.3-1.627-.911-1.627-.6 0-.905.579-.905 1.627 0 1.016.289 1.637.905 1.637.605 0 .911-.595.911-1.637Zm1.112 0c0-1.353.559-1.932 1.264-1.932.689 0 1.259.568 1.259 1.932 0 1.359-.559 1.943-1.253 1.943-.7 0-1.269-.569-1.269-1.943Zm2.169 0c0-1.021-.3-1.627-.911-1.627-.6 0-.905.579-.905 1.627 0 1.016.289 1.637.905 1.637.605 0 .911-.595.911-1.637Zm.959 2.417c.305 0 .332-.2.332-.353v-.152h-.295v-.575h.521v.753a.509.509 0 0 1-.559.527Zm4.508-.505-.021-.475h-.025a1.003 1.003 0 0 1-.959.527c-.716 0-1.185-.543-1.185-1.389 0-.869.484-1.437 1.196-1.437a.985.985 0 0 1 .948.589h.025v-1.653h.332v3.839Zm-.021-1.548a.889.889 0 0 0-.927-.911c-.579 0-.9.437-.9 1.127 0 .7.353 1.075.891 1.075a.893.893 0 0 0 .937-.884Zm1.344-2.233h.327v.537h-.327Zm0 1.059h.327v2.723h-.327Zm1.337 0h.295l.043.564h.025a.919.919 0 0 1 .9-.6v.305c-.611.021-.932.416-.932 1.159v1.296h-.332Zm1.448 1.369c0-.864.505-1.423 1.259-1.423a1.109 1.109 0 0 1 1.18 1.221 2.12 2.12 0 0 1-.016.259h-2.08c-.011.679.363 1.059.932 1.059a.789.789 0 0 0 .843-.568h.337a1.113 1.113 0 0 1-1.196.859c-.748 0-1.259-.548-1.259-1.405Zm2.107-.216c0-.589-.305-.916-.848-.916a.885.885 0 0 0-.916.916Zm2.201 1.623c-.775 0-1.275-.553-1.275-1.405s.495-1.423 1.296-1.423a1.055 1.055 0 0 1 1.132.905h-.343a.756.756 0 0 0-.805-.589c-.611 0-.937.452-.937 1.111 0 .7.368 1.091.932 1.091a.767.767 0 0 0 .827-.643h.348a1.092 1.092 0 0 1-1.175.953Zm3.981-.052h-.327l-.005-2.437h-1.343v1.707c0 .148-.005.468.379.468a.653.653 0 0 0 .237-.032v.295a.987.987 0 0 1-.263.037c-.485 0-.685-.28-.685-.732V28.23h-.48v-.284h.48v-.88l.332-.127v1.005h1.675Zm0-3.781v.537h-.332v-.537Zm2.06 1.005c.768 0 1.279.579 1.279 1.421 0 .832-.511 1.405-1.279 1.405-.775 0-1.291-.569-1.291-1.4 0-.843.516-1.427 1.291-1.427Zm-.005 2.512c.568 0 .943-.4.943-1.1 0-.653-.332-1.096-.937-1.096-.568 0-.948.4-.948 1.1 0 .648.332 1.096.943 1.096Zm2.055-2.46h.289l.048.511h.032a1.005 1.005 0 0 1 .927-.563c.579 0 .948.416.948 1.085v1.691h-.332v-1.659c0-.548-.252-.8-.696-.8-.521 0-.884.416-.884 1.037v1.423h-.332Zm4.461.459h1.932v.343h-1.932Zm0 1.063h1.932v.337h-1.932Zm3.983-1.943h.105c.516 0 .848-.237.911-.653h.305v3.797h-.327v-2.891h-.996Z"/></g><path d="M45.287 76.179h53.225c.068.004.133-.003.2 0 .016-.003.027.016.04.024l.08.064 7.009 5.652 30.743 24.792 214.815 173.237 14.04 11.323.153.124.153.124.077.063.075.06a.661.661 0 0 0 .079.001c1.076.052 1.819-.037 2.835 0h210.828" style="opacity:.88;stroke-width:2.6667px;stroke:#00ff75;fill:none;stroke-linejoin:round"/><path d="M45.287 76.179h41.629c5.781.075 11.676-.207 17.445.244 8.793.755 17.424 3.352 25.373 7.141 11.44 5.452 21.675 13.244 31.015 21.741 10.552 9.635 20.177 20.34 29.537 31.119 21.215 24.579 41.807 50.105 67.131 70.656a234.624 234.624 0 0 0 61.76 36.291c38.985 15.557 80.756 22.524 122.237 27.585 45.896 5.391 92.076 8.053 138.225 10.123" style="stroke:#ff5e5e;opacity:.88;stroke-width:2.6667px;fill:none;stroke-linejoin:round"/><path d="M45.287 76.179h50.891c10.271.007 20.605-.109 30.803 1.299 9.299 1.253 18.459 3.917 26.784 8.281 12.043 6.248 22.127 15.68 30.803 26 9.752 11.628 18.019 24.433 26.043 37.287 17.881 28.679 34.644 58.873 59.668 82.089 25.715 24.075 57.045 35.72 91.068 42.559 24.948 5.012 50.32 7.587 75.672 9.515 47.46 3.451 95.057 4.56 142.621 5.496" style="stroke:#6f70fb;opacity:.88;stroke-width:2.6667px;fill:none;stroke-linejoin:round"/><path d="M45.287 76.179h53.435c17.525 18.001 35.123 36.039 53.973 52.668 16.788 14.843 34.66 28.557 53.704 40.388 28.039 17.509 58.569 30.809 90.009 40.892 43.709 14.004 88.987 22.5 134.351 29.047 49.4 7.032 99.128 11.616 148.88 15.303" style="stroke:#fff500;opacity:.88;stroke-width:2.6667px;fill:none;stroke-linejoin:round"/><path d="M45.287 76.179h41.516c10.5.041 21.025-.121 31.516.42 9.589.501 19.279 2.02 28.103 5.956 17.695 7.887 30.595 23.157 42.164 38.197 13.709 18.18 25.845 37.493 38.837 56.177 27.696 40.076 57.673 76.244 104.46 94.219 22.048 8.605 45.548 12.753 69 15.256 23.344 2.449 46.824 3.369 70.28 3.992 36.151.887 72.317.981 108.477 1.108" style="stroke:#11f1f1;opacity:.88;stroke-width:2.6667px;fill:none;stroke-linejoin:round"/><path class="l" d="M45.287 183.911h534.351"/><g class="e"><path class="m" d="M583.744 183.853h.563q.029.744.905.744a1.009 1.009 0 0 0 .616-.167.533.533 0 0 0 .223-.452.424.424 0 0 0-.221-.412 1.149 1.149 0 0 0-.157-.079q-.059-.023-.169-.052l-.648-.14-.172-.037a2.637 2.637 0 0 1-.137-.04 1.896 1.896 0 0 1-.195-.075.859.859 0 0 1-.528-.817.929.929 0 0 1 .361-.767 1.541 1.541 0 0 1 .972-.285 1.505 1.505 0 0 1 .975.289.985.985 0 0 1 .371.781h-.563a.591.591 0 0 0-.232-.469.959.959 0 0 0-.583-.159.885.885 0 0 0-.536.143.459.459 0 0 0-.192.391.416.416 0 0 0 .233.397 1.935 1.935 0 0 0 .185.081 1.689 1.689 0 0 0 .2.053l.648.129a1.523 1.523 0 0 1 .656.297.86.86 0 0 1 .312.719.972.972 0 0 1-.381.816 1.663 1.663 0 0 1-1.037.293 1.628 1.628 0 0 1-1.081-.321 1.109 1.109 0 0 1-.388-.864Zm5.293.216h.528a.977.977 0 0 1-.361.704 1.253 1.253 0 0 1-.82.264 1.211 1.211 0 0 1-.925-.371 1.612 1.612 0 0 1 0-1.996 1.231 1.231 0 0 1 .94-.377 1.191 1.191 0 0 1 .791.263.935.935 0 0 1 .361.677h-.523a.573.573 0 0 0-.219-.361.689.689 0 0 0-.419-.125.664.664 0 0 0-.553.248 1.072 1.072 0 0 0-.196.68 1.031 1.031 0 0 0 .199.676.672.672 0 0 0 .544.239.688.688 0 0 0 .447-.143.556.556 0 0 0 .207-.381Zm.916-.392a1.408 1.408 0 0 1 .352-.995 1.309 1.309 0 0 1 1.856-.004 1.563 1.563 0 0 1 0 1.985 1.335 1.335 0 0 1-1.856 0 1.397 1.397 0 0 1-.352-.987Zm.528-.005a1.024 1.024 0 0 0 .203.668.732.732 0 0 0 1.099 0 1.224 1.224 0 0 0 .001-1.343.731.731 0 0 0-1.099.001 1.033 1.033 0 0 0-.204.673Zm3.163 1.319h-.519v-2.644h.452l.067.528h.029a.832.832 0 0 1 .849-.569v.464a.819.819 0 0 0-.657.264 1.151 1.151 0 0 0-.221.763Zm2.295.048a1.199 1.199 0 0 1-.916-.371 1.389 1.389 0 0 1-.345-.992 1.443 1.443 0 0 1 .341-1.004 1.187 1.187 0 0 1 .916-.377 1.164 1.164 0 0 1 .872.325 1.191 1.191 0 0 1 .319.873 1.905 1.905 0 0 1-.024.289h-1.9a.884.884 0 0 0 .196.62.703.703 0 0 0 .548.22.797.797 0 0 0 .448-.12.524.524 0 0 0 .232-.323h.515a.936.936 0 0 1-.395.624 1.347 1.347 0 0 1-.805.235Zm-.733-1.627h1.397a.711.711 0 0 0-.177-.516.663.663 0 0 0-.5-.184.7.7 0 0 0-.511.192.723.723 0 0 0-.208.508Z"/></g><path class="l" d="M232.309 334.736V33.087"/><g class="e"><path class="m" d="M228.676 30.663h-.703l-1.308-3.665h.599l.589 1.699.452 1.463h.035l.464-1.459.587-1.704h.593Zm1.217-.724a.759.759 0 0 1 .283-.631 1.213 1.213 0 0 1 .773-.223h.677v-.187q0-.519-.552-.519a.651.651 0 0 0-.403.115.404.404 0 0 0-.164.312h-.503a.808.808 0 0 1 .327-.608 1.213 1.213 0 0 1 .763-.231 1.092 1.092 0 0 1 .777.253.924.924 0 0 1 .269.707v1.163q0 .195.157.193a.371.371 0 0 0 .091-.009v.383a1.008 1.008 0 0 1-.263.039.415.415 0 0 1-.467-.461h-.037a.655.655 0 0 1-.316.344 1.105 1.105 0 0 1-.544.132.911.911 0 0 1-.629-.213.715.715 0 0 1-.24-.56Zm.528-.059a.377.377 0 0 0 .129.307.536.536 0 0 0 .355.108.697.697 0 0 0 .524-.203.719.719 0 0 0 .197-.524v-.128h-.623q-.581 0-.581.44Zm3.056.783h-.513v-3.7h.513Zm2.583-2.644h.519v2.644h-.449l-.069-.488h-.041a.892.892 0 0 1-.348.396 1.015 1.015 0 0 1-.54.141.811.811 0 0 1-.648-.267 1.105 1.105 0 0 1-.231-.748v-1.679h.52v1.603q0 .643.56.643a.656.656 0 0 0 .529-.237.933.933 0 0 0 .2-.621Zm2.356 2.693a1.197 1.197 0 0 1-.916-.371 1.389 1.389 0 0 1-.345-.992 1.443 1.443 0 0 1 .341-1.004 1.187 1.187 0 0 1 .916-.377 1.164 1.164 0 0 1 .872.325 1.192 1.192 0 0 1 .319.873 1.928 1.928 0 0 1-.024.289h-1.9a.884.884 0 0 0 .196.62.701.701 0 0 0 .548.219.796.796 0 0 0 .448-.12.524.524 0 0 0 .232-.323h.515a.936.936 0 0 1-.395.624 1.347 1.347 0 0 1-.805.236Zm-.733-1.628h1.397a.711.711 0 0 0-.177-.516.663.663 0 0 0-.5-.184.7.7 0 0 0-.512.192.721.721 0 0 0-.208.508Z"/></g><path style="stroke:#28cc19;stroke-opacity:.702;stroke-width:1.41732px;fill:none;stroke-linejoin:round" d="M98.721 334.736V33.087"/><path d="M86.843 26.997H89.6v.493h-1.108v3.172h-.543V27.49h-1.108Zm2.477 2.941a.759.759 0 0 1 .283-.631 1.213 1.213 0 0 1 .773-.223h.677v-.187q0-.519-.552-.519a.651.651 0 0 0-.403.115.404.404 0 0 0-.164.312h-.503a.808.808 0 0 1 .327-.608 1.213 1.213 0 0 1 .763-.231 1.092 1.092 0 0 1 .777.253.924.924 0 0 1 .269.707v1.163q0 .195.157.193a.371.371 0 0 0 .091-.009v.383a1.008 1.008 0 0 1-.263.039.415.415 0 0 1-.467-.461h-.037a.655.655 0 0 1-.315.344 1.105 1.105 0 0 1-.544.132.911.911 0 0 1-.629-.213.715.715 0 0 1-.239-.56Zm.528-.059a.377.377 0 0 0 .129.307.536.536 0 0 0 .355.108.697.697 0 0 0 .524-.203.719.719 0 0 0 .197-.524v-.128h-.623q-.581 0-.581.44Zm3.061.783h-.519v-2.644h.452l.067.528h.029a.832.832 0 0 1 .849-.569v.464a.819.819 0 0 0-.657.264 1.151 1.151 0 0 0-.221.763Zm1.095.283a.515.515 0 0 1 .108-.324.528.528 0 0 1 .287-.189v-.037a.391.391 0 0 1-.197-.14.379.379 0 0 1-.072-.231.427.427 0 0 1 .096-.277.529.529 0 0 1 .26-.169v-.037a.753.753 0 0 1-.383-.697.801.801 0 0 1 .283-.633 1.08 1.08 0 0 1 .733-.243 1.015 1.015 0 0 1 .479.1.657.657 0 0 1 .289-.355.929.929 0 0 1 .499-.132v.417a.679.679 0 0 0-.309.068.34.34 0 0 0-.177.173.781.781 0 0 1 .26.619.768.768 0 0 1-.277.623 1.101 1.101 0 0 1-.727.236 1.459 1.459 0 0 1-.348-.033.211.211 0 0 0-.201.221q0 .216.344.216h.672a.908.908 0 0 1 .601.179.615.615 0 0 1 .213.499.639.639 0 0 1-.34.588 1.949 1.949 0 0 1-.968.197 1.689 1.689 0 0 1-.841-.167.521.521 0 0 1-.284-.472Zm.472-.091q0 .347.68.347.763 0 .763-.383 0-.28-.363-.28h-.683a.457.457 0 0 0-.295.084.283.283 0 0 0-.104.233Zm.14-2.005a.488.488 0 0 0 .137.368.601.601 0 0 0 .756-.003.489.489 0 0 0 .137-.367.496.496 0 0 0-.14-.372.52.52 0 0 0-.377-.136.505.505 0 0 0-.375.139.499.499 0 0 0-.139.369Zm3.348 1.863a1.197 1.197 0 0 1-.916-.371 1.389 1.389 0 0 1-.345-.992 1.443 1.443 0 0 1 .341-1.004 1.187 1.187 0 0 1 .916-.377 1.164 1.164 0 0 1 .871.325 1.192 1.192 0 0 1 .319.873 1.928 1.928 0 0 1-.024.289h-1.9a.884.884 0 0 0 .196.62.701.701 0 0 0 .548.219.796.796 0 0 0 .448-.12.524.524 0 0 0 .232-.323h.515a.936.936 0 0 1-.395.624 1.347 1.347 0 0 1-.805.236Zm-.733-1.628h1.397a.711.711 0 0 0-.177-.516.663.663 0 0 0-.499-.184.7.7 0 0 0-.512.192.721.721 0 0 0-.208.508Zm2.197-.633v-.432h.441v-.759l.523-.201v.96h.581v.432h-.581v1.416a.499.499 0 0 0 .073.3.328.328 0 0 0 .277.099.833.833 0 0 0 .231-.024v.423a1.741 1.741 0 0 1-.365.04q-.739 0-.739-.777v-1.473Zm4.885 2.212h-.703l-1.308-3.665h.599l.589 1.699.452 1.463h.033l.464-1.459.587-1.704h.595Zm1.217-.724a.759.759 0 0 1 .283-.631 1.213 1.213 0 0 1 .773-.223h.677v-.187q0-.519-.552-.519a.651.651 0 0 0-.403.115.404.404 0 0 0-.164.312h-.504a.808.808 0 0 1 .327-.608 1.213 1.213 0 0 1 .763-.231 1.092 1.092 0 0 1 .777.253.924.924 0 0 1 .269.707v1.163q0 .195.157.193a.371.371 0 0 0 .091-.009v.383a1.008 1.008 0 0 1-.263.039.415.415 0 0 1-.467-.461h-.037a.655.655 0 0 1-.315.344 1.105 1.105 0 0 1-.544.132.911.911 0 0 1-.629-.213.715.715 0 0 1-.239-.56Zm.528-.059a.377.377 0 0 0 .129.307.536.536 0 0 0 .355.108.697.697 0 0 0 .524-.203.719.719 0 0 0 .197-.524v-.128h-.624q-.581 0-.581.44Zm3.056.783h-.513v-3.7h.513Zm2.583-2.644h.519v2.644h-.449l-.069-.488h-.041a.892.892 0 0 1-.348.396 1.015 1.015 0 0 1-.54.141.811.811 0 0 1-.648-.267 1.105 1.105 0 0 1-.231-.748v-1.679h.521v1.603q0 .643.56.643a.656.656 0 0 0 .529-.237.933.933 0 0 0 .2-.621Zm2.356 2.693a1.197 1.197 0 0 1-.916-.371 1.389 1.389 0 0 1-.347-.992 1.443 1.443 0 0 1 .341-1.004 1.187 1.187 0 0 1 .916-.377 1.164 1.164 0 0 1 .872.325 1.192 1.192 0 0 1 .319.873 1.928 1.928 0 0 1-.025.289h-1.9a.884.884 0 0 0 .196.62.701.701 0 0 0 .548.219.796.796 0 0 0 .448-.12.524.524 0 0 0 .232-.323h.516a.936.936 0 0 1-.395.624 1.347 1.347 0 0 1-.805.236Zm-.733-1.628h1.397a.711.711 0 0 0-.177-.516.663.663 0 0 0-.5-.184.7.7 0 0 0-.512.192.721.721 0 0 0-.208.508Z" style="fill:#28cc19" class="e"/><g class="e"><path class="f" d="M524.445 56.715h-2.78v-4.679h.583v4.14h2.196Zm1.339-3.915h-.552v-.733h.552Zm0 3.915h-.552v-3.351h.552Zm1.673 0h-.557v-3.351h.489l.068.624h.047a1.196 1.196 0 0 1 .453-.507 1.256 1.256 0 0 1 .675-.183 1.059 1.059 0 0 1 .851.367 1.48 1.48 0 0 1 .312.991v2.059h-.559v-2.003q0-.919-.789-.919a.895.895 0 0 0-.716.323 1.263 1.263 0 0 0-.275.845Zm4.716.063a1.487 1.487 0 0 1-1.151-.467 2.064 2.064 0 0 1-.007-2.529 1.475 1.475 0 0 1 1.149-.483 1.444 1.444 0 0 1 1.088.408 1.517 1.517 0 0 1 .395 1.103 2.695 2.695 0 0 1-.019.344h-2.479a1.235 1.235 0 0 0 .273.86.969.969 0 0 0 .761.309 1.081 1.081 0 0 0 .616-.169.715.715 0 0 0 .315-.448h.557a1.177 1.177 0 0 1-.501.777 1.643 1.643 0 0 1-1 .295Zm-1.015-2.033h1.94a1.016 1.016 0 0 0-.244-.732.913.913 0 0 0-.693-.256.976.976 0 0 0-.715.271.999.999 0 0 0-.288.716Zm3.075 1.053a.955.955 0 0 1 .357-.797 1.555 1.555 0 0 1 .984-.281h.893v-.251q0-.724-.771-.724a.888.888 0 0 0-.556.163.563.563 0 0 0-.227.432h-.539a.992.992 0 0 1 .404-.749 1.511 1.511 0 0 1 .944-.291 1.34 1.34 0 0 1 .963.32 1.179 1.179 0 0 1 .336.896v1.527a.747.747 0 0 0 .009.129.153.153 0 0 0 .056.088.212.212 0 0 0 .139.039.616.616 0 0 0 .123-.012v.429a1.043 1.043 0 0 1-.283.037q-.564 0-.564-.589h-.037a.884.884 0 0 1-.416.445 1.417 1.417 0 0 1-.696.169 1.177 1.177 0 0 1-.807-.271.9.9 0 0 1-.309-.711Zm.571-.063a.537.537 0 0 0 .177.428.711.711 0 0 0 .483.156.972.972 0 0 0 .724-.284 1 1 0 0 0 .279-.732v-.179h-.849a.989.989 0 0 0-.609.159.539.539 0 0 0-.205.453Zm3.888.981h-.557v-3.351h.488l.069.68h.041a1.06 1.06 0 0 1 1.085-.731v.499q-1.125.019-1.125 1.353Z"/></g><path style="stroke-width:2.6667px;stroke:#00ff75;fill:none;stroke-linejoin:round" d="M498.019 54.308h21.393"/><g class="e"><path class="f" d="M524.019 66.081a1.308 1.308 0 0 0 1.235.617 1.829 1.829 0 0 0 .301-.019v.517a2.984 2.984 0 0 1-.257.012 2.057 2.057 0 0 1-1.123-.281 1.497 1.497 0 0 1-.623-.789h-.065a2.032 2.032 0 0 1-1.589-.657 2.523 2.523 0 0 1-.593-1.739 2.479 2.479 0 0 1 .599-1.74 2.236 2.236 0 0 1 3.175 0 2.485 2.485 0 0 1 .599 1.729 2.601 2.601 0 0 1-.452 1.56 1.928 1.928 0 0 1-1.207.789Zm-2.096-2.351a2.071 2.071 0 0 0 .423 1.363 1.552 1.552 0 0 0 2.291 0 2.363 2.363 0 0 0 0-2.717 1.539 1.539 0 0 0-2.291 0 2.063 2.063 0 0 0-.423 1.353Zm6.847-1.005h.559v3.351h-.473l-.079-.624h-.051a1.069 1.069 0 0 1-.441.5 1.313 1.313 0 0 1-.696.187 1.029 1.029 0 0 1-.816-.333 1.381 1.381 0 0 1-.292-.941v-2.137h.552v2.06q0 .868.745.868a.893.893 0 0 0 .724-.323 1.285 1.285 0 0 0 .269-.852Zm1.339 2.432a.955.955 0 0 1 .357-.797 1.555 1.555 0 0 1 .984-.28h.893v-.251q0-.724-.771-.724a.888.888 0 0 0-.556.163.563.563 0 0 0-.227.432h-.539a.992.992 0 0 1 .404-.749 1.511 1.511 0 0 1 .944-.291 1.34 1.34 0 0 1 .961.32 1.179 1.179 0 0 1 .336.896v1.527a.747.747 0 0 0 .009.129.153.153 0 0 0 .056.088.212.212 0 0 0 .139.039.617.617 0 0 0 .123-.012v.429a1.044 1.044 0 0 1-.281.037q-.564 0-.564-.589h-.037a.884.884 0 0 1-.416.445 1.417 1.417 0 0 1-.696.169 1.177 1.177 0 0 1-.807-.271.9.9 0 0 1-.309-.709Zm.571-.063a.537.537 0 0 0 .179.428.711.711 0 0 0 .483.156.972.972 0 0 0 .724-.284 1 1 0 0 0 .279-.732v-.179h-.849a.989.989 0 0 0-.609.159.539.539 0 0 0-.205.453Zm6.245-3.723v4.704h-.501l-.056-.583h-.032a1.021 1.021 0 0 1-.449.471 1.441 1.441 0 0 1-.713.175 1.311 1.311 0 0 1-1.047-.46 1.884 1.884 0 0 1-.392-1.251 1.957 1.957 0 0 1 .397-1.285 1.389 1.389 0 0 1 1.761-.288 1.121 1.121 0 0 1 .441.527h.032v-2.01Zm-.557 3.259v-.429a1.004 1.004 0 0 0-1.041-1.047.904.904 0 0 0-.753.34 1.479 1.479 0 0 0-.268.939 1.356 1.356 0 0 0 .269.9.915.915 0 0 0 .74.32 1.037 1.037 0 0 0 .752-.288.997.997 0 0 0 .301-.733Zm2.231 1.444h-.557v-3.351h.489l.069.68h.041a1.06 1.06 0 0 1 1.085-.731v.499q-1.125.019-1.125 1.353Zm1.451-.919a.955.955 0 0 1 .357-.797 1.555 1.555 0 0 1 .984-.28h.893v-.251q0-.724-.771-.724a.888.888 0 0 0-.556.163.563.563 0 0 0-.227.432h-.539a.992.992 0 0 1 .404-.749 1.511 1.511 0 0 1 .944-.291 1.34 1.34 0 0 1 .963.32 1.179 1.179 0 0 1 .336.896v1.527a.747.747 0 0 0 .009.129.153.153 0 0 0 .056.088.212.212 0 0 0 .139.039.617.617 0 0 0 .123-.012v.429a1.044 1.044 0 0 1-.281.037q-.564 0-.564-.589h-.037a.884.884 0 0 1-.416.445 1.417 1.417 0 0 1-.696.169 1.177 1.177 0 0 1-.807-.271.9.9 0 0 1-.309-.711Zm.571-.063a.537.537 0 0 0 .179.428.711.711 0 0 0 .483.156.972.972 0 0 0 .724-.284 1 1 0 0 0 .279-.732v-.179h-.849a.989.989 0 0 0-.609.159.539.539 0 0 0-.205.453Zm3.941-2.369h2.088v3.351h-.552v-2.889h-1.536v1.921a.944.944 0 0 0 .067.344q.079.193.381.193a1.009 1.009 0 0 0 .304-.041v.471a1.777 1.777 0 0 1-.399.049q-.905 0-.905-.956v-1.984h-.577v-.46h.577v-1.015l.552-.211Zm1.536-.564v-.733h.552v.733Zm3.892 2.771h.571a1.232 1.232 0 0 1-.461.881 1.559 1.559 0 0 1-1.015.325 1.504 1.504 0 0 1-1.163-.473 2.045 2.045 0 0 1 0-2.523 1.539 1.539 0 0 1 1.188-.483 1.512 1.512 0 0 1 .984.323 1.175 1.175 0 0 1 .448.833h-.564a.793.793 0 0 0-.311-.491.964.964 0 0 0-.577-.171.921.921 0 0 0-.763.339 1.432 1.432 0 0 0-.271.921 1.372 1.372 0 0 0 .275.913.933.933 0 0 0 .753.324.963.963 0 0 0 .62-.197.752.752 0 0 0 .285-.523Z"/></g><path style="stroke:#ff5e5e;stroke-width:2.6667px;fill:none;stroke-linejoin:round" d="M498.019 63.668h21.393"/><g class="e"><path class="f" d="M524.919 73.903h.599a1.676 1.676 0 0 1-.655 1.16 2.145 2.145 0 0 1-1.367.435 2.047 2.047 0 0 1-1.585-.657 2.803 2.803 0 0 1 0-3.479 2.048 2.048 0 0 1 1.585-.661 2.121 2.121 0 0 1 1.353.429 1.768 1.768 0 0 1 .667 1.153h-.599a1.308 1.308 0 0 0-.5-.776 1.513 1.513 0 0 0-.923-.28 1.432 1.432 0 0 0-1.149.511 2.413 2.413 0 0 0 0 2.729 1.401 1.401 0 0 0 1.141.508 1.511 1.511 0 0 0 .948-.285 1.32 1.32 0 0 0 .484-.787Zm3.723-1.817h.559v3.351h-.473l-.077-.624h-.051a1.069 1.069 0 0 1-.441.5 1.315 1.315 0 0 1-.696.187 1.029 1.029 0 0 1-.816-.333 1.381 1.381 0 0 1-.293-.941v-2.137h.552v2.06q0 .868.745.868a.893.893 0 0 0 .724-.323 1.285 1.285 0 0 0 .269-.852Zm2.128 3.351h-.508v-4.704h.557v1.996h.041a1.091 1.091 0 0 1 .448-.512 1.337 1.337 0 0 1 .719-.196 1.265 1.265 0 0 1 1.021.483 1.889 1.889 0 0 1 .399 1.257 1.927 1.927 0 0 1-.399 1.267 1.308 1.308 0 0 1-1.053.473 1.417 1.417 0 0 1-.705-.175.933.933 0 0 1-.429-.472h-.041Zm.051-1.875v.429a.977.977 0 0 0 .297.733 1.017 1.017 0 0 0 .736.288.94.94 0 0 0 .743-.325 1.657 1.657 0 0 0 .003-1.855.941.941 0 0 0-.74-.319 1.004 1.004 0 0 0-1.04 1.047Zm4.024-2.04h-.552v-.733h.552Zm0 3.915h-.552v-3.351h.552Zm3.344-1.144h.571a1.232 1.232 0 0 1-.46.881 1.559 1.559 0 0 1-1.015.325 1.504 1.504 0 0 1-1.163-.473 2.045 2.045 0 0 1 0-2.523 1.539 1.539 0 0 1 1.188-.483 1.512 1.512 0 0 1 .984.323 1.175 1.175 0 0 1 .448.833h-.564a.793.793 0 0 0-.311-.491.964.964 0 0 0-.577-.171.921.921 0 0 0-.763.339 1.432 1.432 0 0 0-.271.921 1.372 1.372 0 0 0 .275.913.933.933 0 0 0 .753.324.963.963 0 0 0 .62-.197.752.752 0 0 0 .285-.523Z"/></g><path style="stroke:#6f70fb;stroke-width:2.6667px;fill:none;stroke-linejoin:round" d="M498.019 73.028h21.393"/><g class="e"><path class="f" d="M523.443 84.795h-1.777v-4.679h1.777a1.901 1.901 0 0 1 1.529.643 2.896 2.896 0 0 1 0 3.4 1.916 1.916 0 0 1-1.529.636Zm-1.193-4.145v3.613h1.163a1.343 1.343 0 0 0 1.1-.483 2.041 2.041 0 0 0 .395-1.329 1.999 1.999 0 0 0-.4-1.329 1.359 1.359 0 0 0-1.096-.472Zm5.507 4.208a1.487 1.487 0 0 1-1.151-.467 2.064 2.064 0 0 1-.005-2.529 1.475 1.475 0 0 1 1.149-.483 1.444 1.444 0 0 1 1.088.408 1.517 1.517 0 0 1 .395 1.103 2.696 2.696 0 0 1-.019.344h-2.479a1.235 1.235 0 0 0 .272.86.969.969 0 0 0 .761.309 1.081 1.081 0 0 0 .616-.169.715.715 0 0 0 .315-.448h.557a1.177 1.177 0 0 1-.501.777 1.643 1.643 0 0 1-1 .295Zm-1.015-2.033h1.94a1.016 1.016 0 0 0-.244-.732.913.913 0 0 0-.693-.256.976.976 0 0 0-.715.271.999.999 0 0 0-.288.716Zm4.851-1.379v.46h-.801v2.889h-.559v-2.889h-.601v-.46h.601v-.441a.924.924 0 0 1 .257-.711 1.025 1.025 0 0 1 .727-.24 1.392 1.392 0 0 1 .376.044v.455a1.605 1.605 0 0 0-.301-.031.491.491 0 0 0-.384.132.597.597 0 0 0-.117.408v.385Zm.32 2.432a.955.955 0 0 1 .357-.797 1.555 1.555 0 0 1 .984-.281h.893v-.251q0-.724-.771-.724a.888.888 0 0 0-.556.163.563.563 0 0 0-.227.432h-.539a.992.992 0 0 1 .404-.749 1.511 1.511 0 0 1 .944-.291 1.34 1.34 0 0 1 .963.32 1.179 1.179 0 0 1 .336.896v1.527a.747.747 0 0 0 .009.129.153.153 0 0 0 .056.088.212.212 0 0 0 .139.04.617.617 0 0 0 .123-.013v.429a1.043 1.043 0 0 1-.283.037q-.564 0-.564-.589h-.037a.884.884 0 0 1-.416.445 1.417 1.417 0 0 1-.696.169 1.177 1.177 0 0 1-.807-.271.9.9 0 0 1-.309-.709Zm.571-.063a.537.537 0 0 0 .179.427.711.711 0 0 0 .483.156.972.972 0 0 0 .724-.284 1 1 0 0 0 .279-.732v-.179h-.849a.989.989 0 0 0-.609.159.539.539 0 0 0-.205.453Zm5.541-2.369h.557v3.351h-.473l-.077-.624h-.051a1.069 1.069 0 0 1-.441.5 1.315 1.315 0 0 1-.696.187 1.029 1.029 0 0 1-.816-.333 1.381 1.381 0 0 1-.293-.941v-2.137h.552v2.06q0 .868.747.868a.893.893 0 0 0 .724-.323 1.285 1.285 0 0 0 .269-.852Zm2.171 3.351h-.552v-4.704h.552Zm.643-2.889v-.46h.577v-1.015l.552-.211v1.225h.752v.46h-.752v1.933a.964.964 0 0 0 .011.192.477.477 0 0 0 .06.159.301.301 0 0 0 .145.123.748.748 0 0 0 .253.053.856.856 0 0 0 .281-.041v.471a1.669 1.669 0 0 1-.416.051q-.887 0-.887-.956v-1.984Z"/></g><path style="stroke:#fff500;stroke-width:2.6667px;fill:none;stroke-linejoin:round" d="M498.019 82.388h21.393"/><g class="e"><path class="f" d="M524.777 94.155h-3.112v-4.679h3.112v.533h-2.529v1.481h2.216v.508h-2.216v1.623h2.529Zm1.388 0h-.557v-3.351h.489l.068.68h.041a1.06 1.06 0 0 1 1.085-.731v.499q-1.125.019-1.125 1.353Zm2.323 0h-.557v-3.351h.488l.069.68h.041a1.06 1.06 0 0 1 1.085-.731v.499q-1.125.019-1.125 1.353Zm1.335-1.661a1.816 1.816 0 0 1 .441-1.267 1.525 1.525 0 0 1 1.175-.489 1.467 1.467 0 0 1 1.156.489 2.004 2.004 0 0 1 0 2.511 1.481 1.481 0 0 1-1.156.48 1.556 1.556 0 0 1-1.175-.473 1.772 1.772 0 0 1-.441-1.251Zm.571-.016a1.396 1.396 0 0 0 .275.913 1.035 1.035 0 0 0 1.523-.001 1.648 1.648 0 0 0 .005-1.823.928.928 0 0 0-.763-.333.941.941 0 0 0-.76.333 1.371 1.371 0 0 0-.28.911Zm4.049 1.677h-.557v-3.351h.488l.069.68h.041a1.06 1.06 0 0 1 1.085-.731v.499q-1.125.019-1.125 1.353Zm3.933 0h-.583v-4.679h3.061v.533h-2.479v1.789h2.223v.508h-2.223Zm5.493-3.351h.559v3.351h-.473l-.079-.624h-.051a1.069 1.069 0 0 1-.441.5 1.313 1.313 0 0 1-.696.187 1.029 1.029 0 0 1-.816-.333 1.381 1.381 0 0 1-.293-.941v-2.137h.552v2.06q0 .868.745.868a.893.893 0 0 0 .724-.323 1.285 1.285 0 0 0 .269-.852Zm2.179 3.351h-.557v-3.351h.489l.069.624h.047a1.196 1.196 0 0 1 .453-.507 1.256 1.256 0 0 1 .675-.183 1.059 1.059 0 0 1 .851.367 1.48 1.48 0 0 1 .312.991v2.059h-.557v-2.003q0-.919-.789-.919a.895.895 0 0 0-.716.323 1.263 1.263 0 0 0-.275.845Zm5.635-1.144h.571a1.232 1.232 0 0 1-.461.881 1.559 1.559 0 0 1-1.015.325 1.504 1.504 0 0 1-1.163-.473 2.045 2.045 0 0 1 0-2.523 1.539 1.539 0 0 1 1.188-.483 1.512 1.512 0 0 1 .984.323 1.175 1.175 0 0 1 .448.833h-.564a.793.793 0 0 0-.311-.491.964.964 0 0 0-.577-.171.921.921 0 0 0-.763.339 1.432 1.432 0 0 0-.271.921 1.372 1.372 0 0 0 .275.913.933.933 0 0 0 .753.325.963.963 0 0 0 .62-.197.752.752 0 0 0 .285-.523Zm2.047-2.207h2.088v3.351h-.552v-2.889h-1.536v1.921a.944.944 0 0 0 .067.344q.079.193.381.193a1.009 1.009 0 0 0 .304-.041v.471a1.777 1.777 0 0 1-.397.051q-.907 0-.905-.956v-1.984h-.577v-.46h.577V89.79l.552-.211Zm1.536-.564v-.733h.552v.733Zm1.388 2.253a1.816 1.816 0 0 1 .441-1.267 1.525 1.525 0 0 1 1.175-.489 1.467 1.467 0 0 1 1.156.489 2.004 2.004 0 0 1 0 2.511 1.481 1.481 0 0 1-1.156.48 1.556 1.556 0 0 1-1.175-.473 1.772 1.772 0 0 1-.441-1.251Zm.571-.016a1.396 1.396 0 0 0 .275.913 1.035 1.035 0 0 0 1.523-.001 1.648 1.648 0 0 0 .004-1.823.928.928 0 0 0-.761-.333.941.941 0 0 0-.76.333 1.371 1.371 0 0 0-.28.911Zm4.049 1.677h-.557v-3.351h.488l.069.624h.047a1.196 1.196 0 0 1 .453-.507 1.256 1.256 0 0 1 .675-.183 1.059 1.059 0 0 1 .851.367 1.48 1.48 0 0 1 .312.991v2.059h-.559v-2.003q0-.919-.789-.919a.895.895 0 0 0-.716.323 1.263 1.263 0 0 0-.275.845Z"/></g><path style="stroke:#11f1f1;stroke-width:2.6667px;fill:none;stroke-linejoin:round" d="M498.019 91.748h21.393"/></svg>