<svg style="fill-opacity:1;color-rendering:auto;color-interpolation:auto;text-rendering:auto;stroke:#000;stroke-linecap: round;stroke-miterlimit:10;shape-rendering:auto;stroke-opacity:1;fill:#000;stroke-dasharray:none;font-weight:400;stroke-width:1;font-family:system-ui, -apple-system, BlinkMacSystemFont, &#39;Segoe UI&#39;, Roboto, Oxygen, Ubuntu, Cantarell, &#39;Open Sans&#39;, &#39;Helvetica Neue&#39;, sans-serif;font-style:normal;stroke-linejoin:miter;font-size:12px;stroke-dashoffset:0;image-rendering:auto" width="1920" height="1030" xmlns="http://www.w3.org/2000/svg">
    <defs>
        <clippath clipPathUnits="userSpaceOnUse" id="a">
            <path d="M0 0h1920v1030H0V0Z"></path>
        </clippath>
    </defs>
    <g style="fill:#fff;stroke:#fff">
        <path style="clip-path:url(#a);stroke:none" d="M0 0h1920v1030H0z" stroke="none"></path>
    </g>
    <g style="fill:#fff;text-rendering:optimizeSpeed;color-rendering:optimizeSpeed;image-rendering:optimizeSpeed;shape-rendering:crispEdges;stroke:#fff;color-interpolation:sRGB" stroke="none">
        <path style="stroke:none;fill:#232529" d="M0 0h1920v1030H0z"></path>
        <path d="M250 917h1488V77H250Z" style="fill:#282c34;stroke:none"></path>
    </g>
    <g style="stroke-linecap:butt;fill:#8f8f8f;text-rendering:geometricPrecision;image-rendering:optimizeQuality;color-rendering:optimizeQuality;stroke-linejoin:round;stroke:#8f8f8f;color-interpolation:linearRGB;stroke-width:.6667">
        <path style="fill:none" d="M250 917V77m148.8 840V77m148.8 840V77m148.8 840V77m148.8 840V77M994 917V77m148.8 840V77m148.8 840V77m148.8 840V77m148.8 840V77M1738 917V77m0 766.457H250m1488-85.162H250m1488-85.162H250m1488-85.162H250m1488-85.162H250m1488-85.162H250m1488-85.161H250m1488-85.162H250m1488-85.162H250M1738 77H250"></path>
        <path style="stroke-linecap:square;fill:none;stroke:#fff" d="M250 917h1488M250 77h1488M250 917v-14.88M398.8 917v-14.88M547.6 917v-14.88M696.4 917v-14.88M845.2 917v-14.88M994 917v-14.88M1142.8 917v-14.88M1291.6 917v-14.88M1440.4 917v-14.88M1589.2 917v-14.88M1738 917v-14.88M250 77v14.88M398.8 77v14.88M547.6 77v14.88M696.4 77v14.88M845.2 77v14.88M994 77v14.88M1142.8 77v14.88M1291.6 77v14.88M1440.4 77v14.88M1589.2 77v14.88M1738 77v14.88"></path>
    </g>
    <g style="font-size:13.3333px;fill:#fff;text-rendering:geometricPrecision;color-rendering:optimizeQuality;image-rendering:optimizeQuality;stroke:#fff;color-interpolation:linearRGB">
        <text xml:space="preserve" style="stroke:none" transform="translate(246 936)">0</text></g>
    <g style="font-size:13.3333px;fill:#fff;text-rendering:geometricPrecision;color-rendering:optimizeQuality;image-rendering:optimizeQuality;stroke:#fff;color-interpolation:linearRGB">
        <text xml:space="preserve" style="stroke:none" transform="translate(387 936)">200</text></g>
    <g style="font-size:13.3333px;fill:#fff;text-rendering:geometricPrecision;color-rendering:optimizeQuality;image-rendering:optimizeQuality;stroke:#fff;color-interpolation:linearRGB">
        <text xml:space="preserve" style="stroke:none" transform="translate(536 936)">400</text></g>
    <g style="font-size:13.3333px;fill:#fff;text-rendering:geometricPrecision;color-rendering:optimizeQuality;image-rendering:optimizeQuality;stroke:#fff;color-interpolation:linearRGB">
        <text xml:space="preserve" style="stroke:none" transform="translate(684 936)">600</text></g>
    <g style="font-size:13.3333px;fill:#fff;text-rendering:geometricPrecision;color-rendering:optimizeQuality;image-rendering:optimizeQuality;stroke:#fff;color-interpolation:linearRGB">
        <text xml:space="preserve" style="stroke:none" transform="translate(833 936)">800</text></g>
    <g style="font-size:13.3333px;fill:#fff;text-rendering:geometricPrecision;color-rendering:optimizeQuality;image-rendering:optimizeQuality;stroke:#fff;color-interpolation:linearRGB">
        <text xml:space="preserve" style="stroke:none" transform="translate(979 936)">1000</text></g>
    <g style="font-size:13.3333px;fill:#fff;text-rendering:geometricPrecision;color-rendering:optimizeQuality;image-rendering:optimizeQuality;stroke:#fff;color-interpolation:linearRGB">
        <text xml:space="preserve" style="stroke:none" transform="translate(1128 936)">1200</text></g>
    <g style="font-size:13.3333px;fill:#fff;text-rendering:geometricPrecision;color-rendering:optimizeQuality;image-rendering:optimizeQuality;stroke:#fff;color-interpolation:linearRGB">
        <text xml:space="preserve" style="stroke:none" transform="translate(1277 936)">1400</text></g>
    <g style="font-size:13.3333px;fill:#fff;text-rendering:geometricPrecision;color-rendering:optimizeQuality;image-rendering:optimizeQuality;stroke:#fff;color-interpolation:linearRGB">
        <text xml:space="preserve" style="stroke:none" transform="translate(1425 936)">1600</text></g>
    <g style="font-size:13.3333px;fill:#fff;text-rendering:geometricPrecision;color-rendering:optimizeQuality;image-rendering:optimizeQuality;stroke:#fff;color-interpolation:linearRGB">
        <text xml:space="preserve" style="stroke:none" transform="translate(1574 936)">1800</text></g>
    <g style="font-size:13.3333px;fill:#fff;text-rendering:geometricPrecision;color-rendering:optimizeQuality;image-rendering:optimizeQuality;stroke:#fff;color-interpolation:linearRGB">
        <text xml:space="preserve" style="stroke:none" transform="translate(1723 936)">2000</text></g>
    <g style="
	font-size: 16px;
	fill: #fff;
	text-rendering: auto;
	color-rendering: auto;
	image-rendering: auto;
	stroke: #fff;
	color-interpolation: auto;
	font-weight: 500;
	font-kerning: normal;
	font-optical-sizing: auto;
	-webkit-font-smoothing: antialiased;
">
        <text x="-51" xml:space="" y="15" style="stroke:none" transform="translate(994 940.667)">Category
            Value</text></g>
    <g style="fill:#fff;text-rendering:geometricPrecision;image-rendering:optimizeQuality;color-rendering:optimizeQuality;stroke-linejoin:round;stroke:#fff;color-interpolation:linearRGB;stroke-width:.6667">
        <path style="fill:none" d="M250 917V77m1488 840V77M250 843.457h14.88M250 758.295h14.88M250 673.133h14.88M250 587.971h14.88M250 502.809h14.88M250 417.647h14.88M250 332.486h14.88M250 247.324h14.88M250 162.162h14.88M250 77h14.88M1738 843.457h-14.88m14.88-85.162h-14.88m14.88-85.162h-14.88m14.88-85.162h-14.88m14.88-85.162h-14.88m14.88-85.162h-14.88m14.88-85.161h-14.88m14.88-85.162h-14.88m14.88-85.162h-14.88M1738 77h-14.88"></path>
    </g>
    <g style="font-size:13.3333px;fill:#fff;text-rendering:geometricPrecision;color-rendering:optimizeQuality;image-rendering:optimizeQuality;stroke:#fff;color-interpolation:linearRGB">
        <text xml:space="preserve" style="stroke:none" transform="translate(222 849)">100</text></g>
    <g style="font-size:13.3333px;fill:#fff;text-rendering:geometricPrecision;color-rendering:optimizeQuality;image-rendering:optimizeQuality;stroke:#fff;color-interpolation:linearRGB">
        <text xml:space="preserve" style="stroke:none" transform="translate(222 764)">200</text></g>
    <g style="font-size:13.3333px;fill:#fff;text-rendering:geometricPrecision;color-rendering:optimizeQuality;image-rendering:optimizeQuality;stroke:#fff;color-interpolation:linearRGB">
        <text xml:space="preserve" style="stroke:none" transform="translate(222 679)">300</text></g>
    <g style="font-size:13.3333px;fill:#fff;text-rendering:geometricPrecision;color-rendering:optimizeQuality;image-rendering:optimizeQuality;stroke:#fff;color-interpolation:linearRGB">
        <text xml:space="preserve" style="stroke:none" transform="translate(222 594)">400</text></g>
    <g style="font-size:13.3333px;fill:#fff;text-rendering:geometricPrecision;color-rendering:optimizeQuality;image-rendering:optimizeQuality;stroke:#fff;color-interpolation:linearRGB">
        <text xml:space="preserve" style="stroke:none" transform="translate(222 509)">500</text></g>
    <g style="font-size:13.3333px;fill:#fff;text-rendering:geometricPrecision;color-rendering:optimizeQuality;image-rendering:optimizeQuality;stroke:#fff;color-interpolation:linearRGB">
        <text xml:space="preserve" style="stroke:none" transform="translate(222 424)">600</text></g>
    <g style="font-size:13.3333px;fill:#fff;text-rendering:geometricPrecision;color-rendering:optimizeQuality;image-rendering:optimizeQuality;stroke:#fff;color-interpolation:linearRGB">
        <text xml:space="preserve" style="stroke:none" transform="translate(222 338)">700</text></g>
    <g style="font-size:13.3333px;fill:#fff;text-rendering:geometricPrecision;color-rendering:optimizeQuality;image-rendering:optimizeQuality;stroke:#fff;color-interpolation:linearRGB">
        <text xml:space="preserve" style="stroke:none" transform="translate(222 253)">800</text></g>
    <g style="font-size:13.3333px;fill:#fff;text-rendering:geometricPrecision;color-rendering:optimizeQuality;image-rendering:optimizeQuality;stroke:#fff;color-interpolation:linearRGB">
        <text xml:space="preserve" style="stroke:none" transform="translate(222 168)">900</text></g>
    <g style="font-size:13.3333px;fill:#fff;text-rendering:geometricPrecision;color-rendering:optimizeQuality;image-rendering:optimizeQuality;stroke:#fff;color-interpolation:linearRGB">
        <text xml:space="preserve" style="stroke:none" transform="translate(215 83)">1000</text></g>
    <g style="font-size: 16px;fill:#fff;text-rendering: auto;color-rendering: auto;image-rendering: auto;stroke:#fff;color-interpolation: auto;font-weight: 500;font-kerning: normal;font-optical-sizing: auto;-webkit-font-smoothing: antialiased;">
        <text x="-51" xml:space="" y="-4" style="stroke:none" transform="rotate(-90 353.833 143.166)">Category
            Score</text></g>
    <g style="font-size: 16px;fill: #fff;text-rendering: auto;color-rendering: auto;image-rendering: auto;stroke: #fff;color-interpolation: auto;font-weight: 700;font-kerning: normal;font-optical-sizing: auto;-webkit-font-smoothing: antialiased;">
        <text x="-87.5" xml:space="" y="-4" style="stroke:none" transform="translate(994.001 52.5)">Scoring
            Function - Cubic</text></g>
    <g style="
	font-size: 16px;
	fill: #fff;
	text-rendering: auto;
	color-rendering: auto;
	image-rendering: auto;
	stroke: #fff;
	color-interpolation: auto;
	font-weight: 300;
	font-kerning: normal;
	font-optical-sizing: auto;
	-webkit-font-smoothing: antialiased;
	font-style: italic;
">
        <text x="-154.5" xml:space="" y="-4" style="stroke:none" transform="translate(994.001 74.25)">bias = 0,
            grain = 500, target = 200, direction = 1</text></g>
    <g style="stroke-linecap:butt;fill:#0075ff;text-rendering:geometricPrecision;image-rendering:optimizeQuality;color-rendering:optimizeQuality;stroke-linejoin:round;stroke:#0075ff;color-interpolation:linearRGB;stroke-width:4">
        <path d="M250 77h152.37l4.655.006 3.67.012 3.808.023 4.12.041 3.357.05 3.882.077 3.595.094 3.632.122 3.846.16 4.14.21 3.337.204 3.562.253 3.915.324 3.802.363 3.676.401 4.137.513 3.34.465 3.613.557 3.865.661 3.846.73 3.631.755 3.362.762 4.115 1.017 3.935 1.062 3.543 1.035 3.915 1.235 3.562 1.208 3.512 1.275 3.966 1.54 4.346 1.818 3.13 1.395 3.672 1.73 3.806 1.906 3.895 2.07 3.583 2.014 2.692 1.586 4.785 2.973 3.35 2.202 4.128 2.854 2.956 2.142 4.52 3.436 4.037 3.236 3.441 2.887 3.929 3.442 3.549 3.247 3.768 3.591 3.709 3.683 3.404 3.512 4.073 4.367 3.796 4.236 3.682 4.264 3.51 4.207 3.967 4.926 3.742 4.812 3.736 4.965 3.561 4.886 3.916 5.542 3.873 5.659 3.604 5.423 3.779 5.847 3.699 5.885 4.139 6.773 3.338 5.604 3.864 6.643 3.614 6.364 4.165 7.513 3.312 6.106 3.981 7.493 3.496 6.711 4.212 8.248 3.266 6.51 3.45 6.985 4.027 8.286 3.847 8.04 3.63 7.698 3.732 8.014 3.746 8.14 3.234 7.101 4.243 9.41 3.576 8.005 3.902 8.8 3.23 7.334 4.247 9.699 3.706 8.506 3.771 8.685 4.108 9.484 3.37 7.793 3.289 7.61 4.188 9.683 3.134 7.237 4.344 10.002 4.026 9.237 3.45 7.882 3.81 8.653 3.668 8.28 3.72 8.337 3.758 8.353 3.653 8.049 3.824 8.344 3.62 7.816 3.857 8.234 4.254 8.96 3.224 6.705 3.568 7.33 3.91 7.916 3.782 7.544 3.695 7.255 3.624 7.007 3.853 7.325 3.862 7.214 3.615 6.635 4.173 7.515 3.305 5.84 3.815 6.623 3.662 6.234 3.86 6.442 3.618 5.915 3.116 5.004 4.36 6.857 4.052 6.22 3.426 5.15 4.06 5.971 3.418 4.917 3.95 5.562 3.527 4.855 3.684 4.963 3.793 4.997 3.528 4.543 3.95 4.972 3.776 4.642 3.701 4.445 3.764 4.417 3.714 4.256 3.875 4.338 3.602 3.939 3.718 3.972 3.76 3.923 3.742 3.814 3.735 3.717 3.766 3.66 3.711 3.523 3.952 3.66 3.526 3.19 3.464 3.065 4.013 3.468 3.894 3.282 3.583 2.95 4.265 3.424 3.213 2.52 3.815 2.927 3.662 2.744 4.239 3.098 3.239 2.313 3.772 2.637 3.705 2.529 4.575 3.043 2.902 1.887 3.266 2.083 4.212 2.626 3.555 2.163 3.922 2.334 3.807 2.212 3.67 2.085 3.073 1.71 4.405 2.397 4.405 2.333 3.072 1.593 3.636 1.846 3.842 1.909 3.36 1.634 4.117 1.958 3.703 1.72 3.774 1.717 4.479 1.988 2.999 1.303 4.169 1.774 3.308 1.378 3.43 1.4 4.048 1.619 3.586 1.403 3.891 1.49 3.337 1.253 4.14 1.521 3.962 1.423 3.516 1.237 4.04 1.392 3.437 1.16 4.036 1.334 3.441 1.115 4.121 1.308 3.357 1.043 3.866 1.18 3.611 1.079 3.824 1.12 3.654 1.049 3.37.95 4.107 1.134 3.421.927 4.056 1.077 3.625.944 3.853.984 3.91.978 3.567.876 3.277.79 4.2.994 3.336.774 4.142.944 3.535.79 3.942.864 3.8.817 3.678.776 4.144.858 3.333.677 3.53.706 3.947.774 3.084.595 4.394.832 3.243.603 4.234.773 3.888.696 3.59.631 3.642.63 3.835.651 3.78.631 3.698.606 3.287.53 4.19.664 4.215.656 3.262.498 4.252.638 3.226.476 3.8.552 3.677.526 3.247.456 4.23.585 3.597.488 3.88.519 4.159.545 3.32.428 3.506.446 3.97.497 3.818.469 3.66.442 3.312.395 4.165.488 4.15.478 3.328.376 3.874.433 3.603.395 3.561.385 3.917.417 3.268.342 4.209.435 3.911.396 3.566.356 3.983.392 3.495.338 3.802.363 3.675.345 4.078.377 3.4.31 3.88.347 3.597.318 3.804.331 3.673.315 3.387.287 4.09.34 4.244.348 3.234.26 4.2.335 3.277.257 4.087.316 3.39.258 3.791.284 3.687.273 3.728.272 3.75.27 4.092.29 3.385.236 3.625.25 3.852.262 3.537.236 3.94.26 4.078.266 3.4.218 3.67.233 3.808.237 3.95.244 3.527.214 3.647.218 3.83.227 4.05.236 3.428.197 4.125.234 3.352.187 3.945.218 3.532.192 3.863.208 3.615.191 3.736.196 3.741.193 4.045.206 3.432.173 4.005.199 3.473.17 3.643.176 3.834.183 3.244.153 4.234.198 3.627.166 3.85.175 4.009.18 3.469.153 3.693.16 3.784.164 3.635.155 3.842.161 3.97.165 3.508.144 3.352.135 4.125.165 3.302.13 4.175.164 3.982.153 3.496.133 3.324.125 4.153.154 3.628.134 3.85.139 3.787.136 3.69.13 3.328.117 4.15.143 4.142.141 3.335.113 3.857.128 3.62.12 3.904.126 3.573.115 4.424.14 3.054.096 3.853.12 3.624.111 4.144.126 3.334.1 4.047.12 3.43.1 3.973.115 3.505.1 3.019.086 4.458.125 3.687.102 3.79.104 3.538.096 3.94.105 3.496.093L1738 917" style="fill:none;fill-rule:evenodd"></path>
    </g>
    <g style="stroke-linecap:butt;fill-opacity: 1;fill:#fcc217;text-rendering:geometricPrecision;image-rendering:optimizeQuality;color-rendering:optimizeQuality;stroke-linejoin:round;stroke:#fcc217;color-interpolation:linearRGB;stroke-width: 1;stroke-opacity: 1;stroke-dasharray: 10;">
        <path style="fill:none" d="M250 502.809h1488"></path>
    </g>
    <g style="fill:#fcc217;stroke:#fcc217;font-size: 16px;text-rendering: auto;color-rendering: auto;image-rendering: auto;color-interpolation: auto;font-weight: 400;font-kerning: normal;font-optical-sizing: auto;-webkit-font-smoothing: antialiased;font-style: italic;">
        <text x="-35" xml:space="preserve" y="-3" style="stroke:none" transform="translate(1733 500.476)">Score</text>
    </g>
    <g style="stroke-linecap:butt;fill-opacity: 1;fill:#fcc217;text-rendering:geometricPrecision;image-rendering:optimizeQuality;color-rendering:optimizeQuality;stroke-linejoin:round;stroke:#fcc217;color-interpolation:linearRGB;stroke-width: 1;stroke-opacity: 1;stroke-dasharray: 10;">
        <path style="fill:none" d="M770.8 917V77"></path>
    </g>
    <g style="fill:#fcc217;stroke:#fcc217;font-size: 16px;text-rendering: auto;color-rendering: auto;image-rendering: auto;color-interpolation: auto;font-weight: 400;font-kerning: normal;font-optical-sizing: auto;-webkit-font-smoothing: antialiased;font-style: italic;">
        <text x="-35" xml:space="preserve" y="14" style="stroke:none" transform="matrix(0 -1 1 0 773.133 89)">Value</text></g>
    <g style="stroke-linecap:butt;fill-opacity: 1;fill:#28cc19;text-rendering:geometricPrecision;image-rendering:optimizeQuality;color-rendering:optimizeQuality;stroke-linejoin:round;stroke:#28cc19;color-interpolation:linearRGB;stroke-width: 1;stroke-opacity: 1;">
        <path style="fill:none" d="M398.8 917V77"></path>
    </g>
    <g style="fill:#28cc19;stroke:#28cc19;font-size: 16px;text-rendering: auto;color-rendering: auto;image-rendering: auto;color-interpolation: auto;font-weight: 400;font-kerning: normal;font-optical-sizing: auto;-webkit-font-smoothing: antialiased;font-style: italic;">
        <text x="-77" xml:space="" y="14" style="stroke:none" transform="matrix(0 -1 1 0 401.133 96)">Target
            Value</text></g>
</svg>