<svg xmlns="http://www.w3.org/2000/svg" width="1000" height="666.667" viewBox="0 0 1000 666.667"><path fill="#fff" class="dcg-svg-background" d="M0 0h1000v666.666H0V0z"/><g transform="scale(2)"/><g fill="none" stroke="#000" paint-order="fill stroke markers" stroke-miterlimit="10" stroke-width="1.666"><path class="dcg-svg-minor-gridline" d="M17.5 0v666.666M60.834 0v666.666M104.166 0v666.666M147.5 0v666.666M190.834 0v666.666M234.166 0v666.666M277.5 0v666.666M320.834 0v666.666M409.166 0v666.666M452.5 0v666.666M495.834 0v666.666M539.166 0v666.666M582.5 0v666.666M625.834 0v666.666M669.166 0v666.666M712.5 0v666.666M755.834 0v666.666M800.834 0v666.666M844.166 0v666.666M887.5 0v666.666M930.834 0v666.666M974.166 0v666.666M0 654.166h1000m-1000-45h1000M0 565.834h1000M0 522.5h1000M0 479.166h1000M0 392.5h1000M0 349.166h1000M0 305.834h1000M0 262.5h1000M0 217.5h1000M0 174.166h1000M0 130.834h1000M0 87.5h1000M0 44.166h1000" stroke-opacity=".2"/><path class="dcg-svg-major-gridline" d="M147.5 0v666.666M582.5 0v666.666M800.834 0v666.666M0 653.334h1000m-1000-435h1000M0 0h1000" stroke-opacity=".25"/></g><path fill="none" stroke="#000" class="dcg-svg-axis-line" paint-order="fill stroke markers" d="M365 0v666.666m-365-230h1000" stroke-opacity=".9" stroke-miterlimit="10" stroke-width="2.5"/><g font-family="Arial" font-size="14" text-anchor="middle"><g class="dcg-svg-axis-value"><text fill="none" stroke="#fff" text-decoration="normal" x="210.044" y="277.322" stroke-miterlimit="2" stroke-width="3" transform="scale(2)">0</text><text text-decoration="normal" x="210.044" y="277.322" transform="scale(2)">0</text></g><g class="dcg-svg-axis-value"><text fill="none" stroke="#fff" text-decoration="normal" x="86.071" y="277.322" stroke-miterlimit="2" stroke-width="3" transform="scale(2)">-1000</text><text text-decoration="normal" x="86.071" y="277.322" transform="scale(2)">-1000</text></g><g class="dcg-svg-axis-value"><text fill="none" stroke="#fff" text-decoration="normal" x="349.473" y="277.322" stroke-miterlimit="2" stroke-width="3" transform="scale(2)">1000</text><text text-decoration="normal" x="349.473" y="277.322" transform="scale(2)">1000</text></g><g class="dcg-svg-axis-value"><text fill="none" stroke="#fff" text-decoration="normal" x="480.008" y="277.322" stroke-miterlimit="2" stroke-width="3" transform="scale(2)">2000</text><text text-decoration="normal" x="480.008" y="277.322" transform="scale(2)">2000</text></g><g class="dcg-svg-axis-value dcg-svg-offcenter-axis-value"><text fill="none" stroke="#fff" text-decoration="normal" x="196.034" y="393.808" stroke-miterlimit="2" stroke-width="3" transform="scale(2)">-1000</text><text text-decoration="normal" x="196.034" y="393.808" transform="scale(2)">-1000</text></g><g class="dcg-svg-axis-value"><text fill="none" stroke="#fff" text-decoration="normal" x="198.365" y="134.786" stroke-miterlimit="2" stroke-width="3" transform="scale(2)">1000</text><text text-decoration="normal" x="198.365" y="134.786" transform="scale(2)">1000</text></g><g class="dcg-svg-axis-value dcg-svg-offcenter-axis-value"><text fill="none" stroke="#fff" text-decoration="normal" x="198.365" y="13.808" stroke-miterlimit="2" stroke-width="3" transform="scale(2)">2000</text><text text-decoration="normal" x="198.365" y="13.808" transform="scale(2)">2000</text></g></g><path fill="none" stroke="#388c46" class="dcg-svg-curve" paint-order="fill stroke markers" d="M-4.882 218.298h0l413.422.13 217.68 217.428h378.662" stroke-linecap="round" stroke-linejoin="round" stroke-miterlimit="10" stroke-width="8.334" stroke-opacity=".9"/><path fill="none" stroke="#2d70b3" class="dcg-svg-curve" paint-order="fill stroke markers" d="M408.408 670.138v-29.332m0-18.668v-29.332m0-18.668v-29.332m0-18.668v-29.332m0-18.668v-29.332m0-18.668v-29.332m0-18.668v-29.332m0-18.668v-29.332m0-18.668v-29.332m0-18.668v-29.332m0-18.668v-29.332m0-18.668v-29.332m0-18.668V64.806m0-18.668V16.806m0-18.668v-1.61" stroke-linecap="round" stroke-linejoin="round" stroke-miterlimit="10" stroke-width="6.666" stroke-opacity=".9"/><path fill="none" stroke="#c74440" class="dcg-svg-curve" paint-order="fill stroke markers" d="M517.188 670.138v-29.332m0-18.668v-29.332m0-18.668v-29.332m0-18.668v-29.332m0-18.668v-29.332m0-18.668v-29.332m0-18.668v-29.332m0-18.668v-29.332m0-18.668v-29.332m0-18.668v-29.332m0-18.668v-29.332m0-18.668v-29.332m0-18.668V64.806m0-18.668V16.806m0-18.668v-1.61" stroke-linecap="round" stroke-linejoin="round" stroke-miterlimit="10" stroke-width="6.666" stroke-opacity=".9"/><path fill="none" stroke="#6042a6" class="dcg-svg-curve" paint-order="fill stroke markers" d="M0 327.076h.2m16 0h.2m16 0h.2m16 0h.2m16 0h.2m16 0h.2m16 0h.2m16 0h.2m16 0h.2m16 0h.2m16 0h.2m16 0h.2m16 0h.2m16 0h.2m16 0h.2m16 0h.2m16 0h.2m16 0h.2m16 0h.2m16 0h.2m16 0h.2m16 0h.2m16 0h.2m16 0h.2m16 0h.2m16 0h.2m16 0h.2m16 0h.2m16 0h.2m16 0h.2m16 0h.2m16 0h.2m16 0h.2m16 0h.2m16 0h.2m16 0h.2m16 0h.2m16 0h.2m16 0h.2m16 0h.2m16 0h.2m16 0h.2m16 0h.2m16 0h.2m16 0h.2m16 0h.2m16 0h.2m16 0h.2m16 0h.2m16 0h.2m16 0h.2m16 0h.2m16 0h.2m16 0h.2m16 0h.2m16 0h.2m16 0h.2m16 0h.2m16 0h.2m16 0h.2m16 0h.2m16 0h.2" stroke-linecap="round" stroke-linejoin="round" stroke-miterlimit="10" stroke-width="10"/><g transform="scale(2)"/></svg>