<svg xmlns="http://www.w3.org/2000/svg" width="1000" height="666.667" viewBox="0 0 1000 666.667"><path fill="#fff" class="dcg-svg-background" d="M0 0h1000v666.666H0V0z"/><g transform="scale(2)"/><g fill="none" stroke="#000" paint-order="fill stroke markers" stroke-miterlimit="10" stroke-width="1.666"><path class="dcg-svg-minor-gridline" d="M25.834 0v666.666M70.834 0v666.666M114.166 0v666.666M159.166 0v666.666M204.166 0v666.666M247.5 0v666.666M292.5 0v666.666M335.834 0v666.666M380.834 0v666.666M469.166 0v666.666M514.166 0v666.666M557.5 0v666.666M602.5 0v666.666M645.834 0v666.666M690.834 0v666.666M735.834 0v666.666M779.166 0v666.666M824.166 0v666.666M867.5 0v666.666M912.5 0v666.666M957.5 0v666.666M0 630.834h1000m-1000-45h1000M0 542.5h1000M0 497.5h1000M0 409.166h1000m-1000-45h1000M0 320.834h1000m-1000-45h1000M0 232.5h1000M0 187.5h1000M0 142.5h1000M0 99.166h1000m-1000-45h1000M0 10.834h1000" stroke-opacity=".2"/><path class="dcg-svg-major-gridline" d="M204.166 0v666.666M645.834 0v666.666M867.5 0v666.666M0 231.666h1000M0 10h1000" stroke-opacity=".25"/></g><path fill="none" stroke="#000" class="dcg-svg-axis-line" paint-order="fill stroke markers" d="M425 0v666.666M0 453.334h1000" stroke-opacity=".9" stroke-miterlimit="10" stroke-width="2.5"/><g font-family="Arial" font-size="14" text-anchor="middle"><g class="dcg-svg-axis-value"><text fill="none" stroke="#fff" text-decoration="normal" x="246.168" y="287.833" stroke-miterlimit="2" stroke-width="3" transform="scale(2)">0</text><text text-decoration="normal" x="246.168" y="287.833" transform="scale(2)">0</text></g><g class="dcg-svg-axis-value"><text fill="none" stroke="#fff" text-decoration="normal" x="119.797" y="287.833" stroke-miterlimit="2" stroke-width="3" transform="scale(2)">-1000</text><text text-decoration="normal" x="119.797" y="287.833" transform="scale(2)">-1000</text></g><g class="dcg-svg-axis-value"><text fill="none" stroke="#fff" text-decoration="normal" x="387.995" y="287.833" stroke-miterlimit="2" stroke-width="3" transform="scale(2)">1000</text><text text-decoration="normal" x="387.995" y="287.833" transform="scale(2)">1000</text></g><g class="dcg-svg-axis-value"><text fill="none" stroke="#fff" text-decoration="normal" x="520.928" y="287.833" stroke-miterlimit="2" stroke-width="3" transform="scale(2)">2000</text><text text-decoration="normal" x="520.928" y="287.833" transform="scale(2)">2000</text></g><g class="dcg-svg-axis-value"><text fill="none" stroke="#fff" text-decoration="normal" x="234.489" y="142.899" stroke-miterlimit="2" stroke-width="3" transform="scale(2)">1000</text><text text-decoration="normal" x="234.489" y="142.899" transform="scale(2)">1000</text></g><g class="dcg-svg-axis-value dcg-svg-offcenter-axis-value"><text fill="none" stroke="#fff" text-decoration="normal" x="234.489" y="13.808" stroke-miterlimit="2" stroke-width="3" transform="scale(2)">2000</text><text text-decoration="normal" x="234.489" y="13.808" transform="scale(2)">2000</text></g></g><path fill="none" stroke="#388c46" class="dcg-svg-curve" paint-order="fill stroke markers" d="M-4.882 231.818h0l478.504.204 4.438.656 4.436 1.108 4.684 1.66 4.684 2.164 4.932 2.816 5.176 3.546 5.67 4.566 6.164 5.74 6.656 7.054 7.642 9.084 8.628 11.3 11.34 15.97 25.392 36.098 9.862 12.746 9.12 10.76 8.876 9.446 8.382 8 8.134 6.954 8.136 6.214 8.382 5.704 8.382 5.068 8.628 4.632 9.122 4.33 9.614 4.022 10.108 3.708 10.846 3.48 11.588 3.23 12.572 3.034 13.806 2.858 15.284 2.698 16.764 2.498 18.736 2.338 21.2 2.194 24.16 2.042 27.858 1.9 32.294 1.744 37.966 1.598 45.36 1.454 36.238.906" stroke-linecap="round" stroke-linejoin="round" stroke-miterlimit="10" stroke-width="8.334"/><path fill="none" stroke="#2d70b3" class="dcg-svg-curve" paint-order="fill stroke markers" d="M469.414 666.666v-22m0-14v-22m0-14v-22m0-14v-22m0-14v-22m0-14v-22m0-14v-22m0-14v-22m0-14v-22m0-14v-22m0-14v-22m0-14v-22m0-14v-22m0-14v-22m0-14v-22m0-14v-22m0-14v-22m0-14v-22m0-14V0" stroke-linecap="round" stroke-linejoin="round" stroke-miterlimit="10" stroke-width="5"/><path fill="none" stroke="#c74440" class="dcg-svg-curve" paint-order="fill stroke markers" d="M580.192 666.666v-22m0-14v-22m0-14v-22m0-14v-22m0-14v-22m0-14v-22m0-14v-22m0-14v-22m0-14v-22m0-14v-22m0-14v-22m0-14v-22m0-14v-22m0-14v-22m0-14v-22m0-14v-22m0-14v-22m0-14v-22m0-14V0" stroke-linecap="round" stroke-linejoin="round" stroke-miterlimit="10" stroke-width="5"/><g transform="scale(2)"/></svg>
